<svg width="43" height="48" viewBox="0 0 43 48" fill="none" xmlns="http://www.w3.org/2000/svg">
<rect width="43" height="48" fill="#1E1E1E"/>
<g id="App Design">
<path d="M-3995 -67.9999C-3995 -123.228 -3950.23 -168 -3895 -168H1725C1780.23 -168 1825 -123.228 1825 -68V4502C1825 4557.23 1780.23 4602 1725 4602H-3895C-3950.23 4602 -3995 4557.23 -3995 4502V-67.9999Z" fill="#404040" fill-opacity="0.3"/>
<path d="M-3895 -167H1725V-169H-3895V-167ZM1824 -68V4502H1826V-68H1824ZM1725 4601H-3895V4603H1725V4601ZM-3994 4502V-67.9999H-3996V4502H-3994ZM-3895 4601C-3949.68 4601 -3994 4556.68 -3994 4502H-3996C-3996 4557.78 -3950.78 4603 -3895 4603V4601ZM1824 4502C1824 4556.68 1779.68 4601 1725 4601V4603C1780.78 4603 1826 4557.78 1826 4502H1824ZM1725 -167C1779.68 -167 1824 -122.676 1824 -68H1826C1826 -123.781 1780.78 -169 1725 -169V-167ZM-3895 -169C-3950.78 -169 -3996 -123.781 -3996 -67.9999H-3994C-3994 -122.676 -3949.68 -167 -3895 -167V-169Z" fill="white" fill-opacity="0.1"/>
<g id="Location Access">
<rect x="-135" y="-68" width="430" height="932" rx="35" fill="white"/>
<g id="2">
<path id="Vector" d="M30.6275 0.981018C31.0546 0.981158 31.4683 1.12978 31.7975 1.40134C32.1268 1.6729 32.351 2.05046 32.4316 2.46912L35.4944 18.3677C35.5165 18.4819 35.5277 18.5978 35.5279 18.7141V24.8289C35.5279 27.1709 33.586 29.1093 31.24 29.1093H28.1773V41.339C28.1806 41.6012 28.1276 41.861 28.0218 42.101C27.6263 45.086 25.1431 47.4539 22.0519 47.4539C18.6906 47.4539 15.9264 44.6944 15.9264 41.339C15.9264 37.9836 18.6906 35.2242 22.0519 35.2242C22.9242 35.2242 23.748 35.4229 24.502 35.7568V27.5758C24.4696 27.3789 24.4696 27.178 24.502 26.9811V18.7141C24.5022 18.5978 24.5134 18.4819 24.5355 18.3677L27.5983 2.46912C27.6789 2.05046 27.9032 1.6729 28.2324 1.40134C28.5616 1.12978 28.9753 0.981158 29.4024 0.981018H30.6275ZM15.3139 0.981018C15.5574 0.977581 15.7991 1.02249 16.0251 1.11314C16.2511 1.20378 16.4567 1.33836 16.6302 1.50905C16.8036 1.67973 16.9413 1.88312 17.0353 2.1074C17.1293 2.33167 17.1777 2.57236 17.1777 2.81547C17.1777 3.05858 17.1293 3.29927 17.0353 3.52355C16.9413 3.74782 16.8036 3.95121 16.6302 4.1219C16.4567 4.29258 16.2511 4.42716 16.0251 4.51781C15.7991 4.60846 15.5574 4.65337 15.3139 4.64993H8.57585V7.09587H15.3139C15.5574 7.09243 15.7991 7.13734 16.0251 7.22799C16.2511 7.31863 16.4567 7.45321 16.6302 7.6239C16.8036 7.79458 16.9413 7.99797 17.0353 8.22225C17.1293 8.44652 17.1777 8.68721 17.1777 8.93032C17.1777 9.17343 17.1293 9.41412 17.0353 9.63839C16.9413 9.86267 16.8036 10.0661 16.6302 10.2367C16.4567 10.4074 16.2511 10.542 16.0251 10.6327C15.7991 10.7233 15.5574 10.7682 15.3139 10.7648H8.57585V13.2107H15.3139C15.5574 13.2073 15.7991 13.2522 16.0251 13.3428C16.2511 13.4335 16.4567 13.5681 16.6302 13.7387C16.8036 13.9094 16.9413 14.1128 17.0353 14.3371C17.1293 14.5614 17.1777 14.8021 17.1777 15.0452C17.1777 15.2883 17.1293 15.529 17.0353 15.7532C16.9413 15.9775 16.8036 16.1809 16.6302 16.3516C16.4567 16.5223 16.2511 16.6569 16.0251 16.7475C15.7991 16.8382 15.5574 16.8831 15.3139 16.8796H8.57585V19.3256H15.3139C15.5574 19.3221 15.7991 19.367 16.0251 19.4577C16.2511 19.5483 16.4567 19.6829 16.6302 19.8536C16.8036 20.0243 16.9413 20.2277 17.0353 20.4519C17.1293 20.6762 17.1777 20.9169 17.1777 21.16C17.1777 21.4031 17.1293 21.6438 17.0353 21.8681C16.9413 22.0924 16.8036 22.2958 16.6302 22.4664C16.4567 22.6371 16.2511 22.7717 16.0251 22.8624C15.7991 22.953 15.5574 22.9979 15.3139 22.9945H8.57585V25.4404H15.3139C15.5574 25.437 15.7991 25.4819 16.0251 25.5725C16.2511 25.6632 16.4567 25.7978 16.6302 25.9684C16.8036 26.1391 16.9413 26.3425 17.0353 26.5668C17.1293 26.7911 17.1777 27.0318 17.1777 27.2749C17.1777 27.518 17.1293 27.7587 17.0353 27.9829C16.9413 28.2072 16.8036 28.4106 16.6302 28.5813C16.4567 28.752 16.2511 28.8866 16.0251 28.9772C15.7991 29.0678 15.5574 29.1128 15.3139 29.1093H8.57585V42.562V43.1735C8.57585 45.5154 6.63403 47.4539 4.28803 47.4539C1.94204 47.4539 0.000209808 45.5154 0.000209808 43.1735V5.26141C0.000209808 2.91948 1.94204 0.981018 4.28803 0.981018H15.3139ZM35.5279 30.0146V34.3428C36.1062 34.1347 36.7193 34.0012 37.3655 34.0012C40.3884 34.0012 42.8784 36.4869 42.8784 39.5046V41.9505C42.8784 44.9682 40.3884 47.4539 37.3655 47.4539C34.3426 47.4539 31.8526 44.9682 31.8526 41.9505V40.7275V39.5046V31.5194C33.2492 31.3971 34.511 30.8585 35.5279 30.0146ZM37.3655 37.6701C36.3285 37.6701 35.5279 38.4693 35.5279 39.5046V40.7275V41.9505C35.5279 42.9857 36.3285 43.785 37.3655 43.785C38.4025 43.785 39.2031 42.9857 39.2031 41.9505V39.5046C39.2031 38.4693 38.4025 37.6701 37.3655 37.6701ZM22.0519 38.8931C20.6769 38.8931 19.6017 39.9664 19.6017 41.339C19.6017 42.7116 20.6769 43.785 22.0519 43.785C23.4268 43.785 24.502 42.7116 24.502 41.339C24.502 39.9664 23.4268 38.8931 22.0519 38.8931Z" fill="#6B4897"/>
</g>
</g>
</g>
</svg>
