<svg width="17" height="20" viewBox="0 0 17 20" fill="none" xmlns="http://www.w3.org/2000/svg">
<path d="M15.7973 6.82172C15.7083 6.87759 13.59 8.0531 13.59 10.6597C13.69 13.6324 16.2631 14.6748 16.3073 14.6748C16.2631 14.7307 15.9186 16.0952 14.8986 17.5255C14.0893 18.7579 13.1907 20 11.8262 20C10.5283 20 10.0624 19.179 8.56485 19.179C6.95658 19.179 6.5014 20 5.27002 20C3.90554 20 2.94037 18.6914 2.08658 17.4707C0.977611 15.8731 0.034852 13.3662 0.00140373 10.9593C-0.0210101 9.68379 0.223473 8.43 0.844162 7.36517C1.72037 5.87828 3.28451 4.86931 4.99278 4.83586C6.3014 4.79172 7.46623 5.73448 8.2652 5.73448C9.03071 5.73448 10.4617 4.83586 12.0807 4.83586C12.7797 4.83655 14.6435 5.0469 15.7973 6.82172ZM8.15451 4.58103C7.9214 3.41621 8.56485 2.25138 9.16382 1.50828C9.92934 0.61 11.1383 0 12.1807 0C12.2473 1.16483 11.8255 2.30724 11.0717 3.13931C10.3952 4.03793 9.23037 4.71414 8.15451 4.58103Z" fill="#6B4897"/>
</svg>
