<svg width="19" height="11" viewBox="0 0 19 11" fill="none" xmlns="http://www.w3.org/2000/svg">
<path d="M18.7144 5.15592C18.7144 4.6971 18.3421 4.32473 17.8832 4.32473L3.19574 4.32473L5.81024 1.57225C5.96276 1.41142 6.03881 1.2057 6.03881 0.99998C6.03881 0.780131 5.95195 0.560697 5.78031 0.396953C5.44742 0.0806863 4.92128 0.0944021 4.60501 0.427293L0.656872 4.58323C0.352657 4.90365 0.352657 5.40735 0.656872 5.72819L4.60501 9.88413C4.92128 10.217 5.44742 10.2303 5.78031 9.91447C6.11237 9.5982 6.12609 9.07206 5.81024 8.73917L3.19574 5.98711L17.8832 5.98711C18.3421 5.98711 18.7144 5.61473 18.7144 5.15592Z" fill="#6B4897"/>
</svg>
