<svg width="20" height="11" viewBox="0 0 20 11" fill="none" xmlns="http://www.w3.org/2000/svg">
<path id="Vector" d="M20 5.54554C20 5.04371 19.5927 4.63643 19.0909 4.63643L3.02643 4.63643L5.88604 1.62591C6.05286 1.44999 6.13605 1.22499 6.13605 0.999984C6.13605 0.759524 6.04105 0.519519 5.85331 0.340423C5.48921 -0.0054934 4.91375 0.00950792 4.56783 0.373606L0.249551 4.91916C-0.0831839 5.26963 -0.0831839 5.82055 0.249551 6.17147L4.56783 10.717C4.91375 11.0811 5.48922 11.0957 5.85331 10.7502C6.2165 10.4043 6.2315 9.82882 5.88604 9.46472L3.02643 6.45465L19.0909 6.45465C19.5927 6.45465 20 6.04737 20 5.54554Z" fill="white"/>
</svg>
