<svg width="20" height="20" viewBox="0 0 20 20" fill="none" xmlns="http://www.w3.org/2000/svg">
<path id="Vector" opacity="0.5" d="M20 4.44444V3.61111C20 1.62 18.38 0 16.3889 0H3.61111C1.62 0 0 1.62 0 3.61111V4.44444H20ZM0 6.11111V16.3889C0 18.38 1.62 20 3.61111 20H16.3889C18.38 20 20 18.38 20 16.3889V6.11111H0ZM5.27778 16.6667C4.51056 16.6667 3.88889 16.045 3.88889 15.2778C3.88889 14.5106 4.51056 13.8889 5.27778 13.8889C6.045 13.8889 6.66667 14.5106 6.66667 15.2778C6.66667 16.045 6.045 16.6667 5.27778 16.6667ZM5.27778 11.6667C4.51056 11.6667 3.88889 11.045 3.88889 10.2778C3.88889 9.51056 4.51056 8.88889 5.27778 8.88889C6.045 8.88889 6.66667 9.51056 6.66667 10.2778C6.66667 11.045 6.045 11.6667 5.27778 11.6667ZM10 16.6667C9.23278 16.6667 8.61111 16.045 8.61111 15.2778C8.61111 14.5106 9.23278 13.8889 10 13.8889C10.7672 13.8889 11.3889 14.5106 11.3889 15.2778C11.3889 16.045 10.7672 16.6667 10 16.6667ZM10 11.6667C9.23278 11.6667 8.61111 11.045 8.61111 10.2778C8.61111 9.51056 9.23278 8.88889 10 8.88889C10.7672 8.88889 11.3889 9.51056 11.3889 10.2778C11.3889 11.045 10.7672 11.6667 10 11.6667ZM14.7222 11.6667C13.955 11.6667 13.3333 11.045 13.3333 10.2778C13.3333 9.51056 13.955 8.88889 14.7222 8.88889C15.4894 8.88889 16.1111 9.51056 16.1111 10.2778C16.1111 11.045 15.4894 11.6667 14.7222 11.6667Z" fill="#7F7F7F"/>
</svg>
