<svg width="20" height="20" viewBox="0 0 20 20" fill="none" xmlns="http://www.w3.org/2000/svg">
<path id="Vector" d="M10 0C4.48603 0 0 4.48604 0 10C0 15.514 4.48603 20 10 20C15.514 20 20 15.514 20 10C20 4.48604 15.514 0 10 0ZM9.75 3.5C10.1645 3.5 10.5 3.8355 10.5 4.25V5H10.75C12.2665 5 13.5 6.2335 13.5 7.75C13.5 8.361 13.2975 8.92386 12.959 9.38086C13.877 9.89436 14.5 10.8755 14.5 12C14.5 13.6545 13.1545 15 11.5 15H10.5V15.75C10.5 16.1645 10.1645 16.5 9.75 16.5C9.3355 16.5 9 16.1645 9 15.75V15H7.25C6.8355 15 6.5 14.6645 6.5 14.25V9.75V5.75C6.5 5.3355 6.8355 5 7.25 5H9V4.25C9 3.8355 9.3355 3.5 9.75 3.5ZM8 6.5V9H10.75C11.439 9 12 8.439 12 7.75C12 7.061 11.439 6.5 10.75 6.5H8ZM8 10.5V13.5H11.5C12.327 13.5 13 12.827 13 12C13 11.173 12.327 10.5 11.5 10.5H10.75H8Z" fill="#6B4897"/>
</svg>
