<svg width="22" height="28" viewBox="0 0 22 28" fill="none" xmlns="http://www.w3.org/2000/svg">
<path d="M20.3174 25.2491L19.1468 26.3134C17.9861 27.369 16.3051 27.72 14.7279 27.2362C10.9799 26.0867 7.47877 22.848 4.22306 17.521C0.972878 12.2012 -0.243741 7.72579 0.573298 4.09306C0.919371 2.55426 2.09259 1.35237 3.65293 0.937353L5.22092 0.520289C6.68372 0.131406 8.27235 0.86997 8.93667 2.2477L10.269 5.00934C10.8408 6.1946 10.5842 7.56441 9.63188 8.40887L7.56268 10.2428C7.28645 10.4875 7.1431 10.859 7.20755 11.2219C7.45036 12.5948 7.93987 13.9225 8.67512 15.2054C9.41208 16.4909 10.2962 17.5566 11.3279 18.4028C11.5978 18.6241 11.9667 18.6852 12.3014 18.5858L15.2733 17.7054C16.5332 17.3319 17.9382 17.8077 18.7472 18.8801L20.6037 21.3414C21.5373 22.5804 21.4147 24.2515 20.3174 25.2491Z" fill="#6B4897"/>
</svg>
