<svg width="20" height="20" viewBox="0 0 20 20" fill="none" xmlns="http://www.w3.org/2000/svg">
<path id="Vector" opacity="0.5" d="M20 10C20 15.514 15.514 20 10 20C8.4085 20 6.831 19.615 5.4175 18.8855L1.587 19.955C1.4765 19.985 1.364 20 1.252 20C0.9245 20 0.604 19.871 0.3665 19.634C0.0479999 19.315 -0.0745 18.848 0.0465 18.4145L1.116 14.586C0.385 13.171 0 11.5925 0 10C0 4.4855 4.486 0 10 0C15.514 0 20 4.4855 20 10ZM15 8.2495C15 7.8355 14.6645 7.4995 14.25 7.4995H5.75C5.3355 7.4995 5 7.8355 5 8.2495C5 8.6635 5.3355 8.9995 5.75 8.9995H14.25C14.6645 8.9995 15 8.6635 15 8.2495ZM13 11.7495C13 11.3355 12.6645 10.9995 12.25 10.9995H5.75C5.3355 10.9995 5 11.3355 5 11.7495C5 12.1635 5.3355 12.4995 5.75 12.4995H12.25C12.6645 12.4995 13 12.1635 13 11.7495Z" fill="#7F7F7F"/>
</svg>
