<svg width="29" height="28" viewBox="0 0 29 28" fill="none" xmlns="http://www.w3.org/2000/svg">
<path d="M17.6788 0C16.5662 0 15.4539 0.421619 14.6107 1.26478H14.6094L1.23537 14.6414C-0.411941 16.2879 -0.411638 18.9884 1.23537 20.6354L3.16905 22.5691C3.23284 22.6582 3.3108 22.7361 3.39984 22.7999L8.29205 27.6921C8.38432 27.7882 8.49485 27.865 8.61714 27.9178C8.73944 27.9707 8.87106 27.9986 9.00428 27.9999C9.13751 28.0013 9.26966 27.9761 9.39301 27.9257C9.51636 27.8753 9.62842 27.8009 9.72262 27.7067C9.81683 27.6125 9.8913 27.5004 9.94166 27.3771C9.99201 27.2537 10.0173 27.1216 10.0159 26.9883C10.0145 26.8551 9.98662 26.7235 9.93377 26.6012C9.88091 26.4789 9.80418 26.3684 9.70808 26.2761L5.40914 21.9772L7.00511 20.3812L11.2988 24.6906C11.3909 24.7868 11.5013 24.8637 11.6235 24.9168C11.7457 24.9699 11.8773 24.998 12.0105 24.9996C12.1437 25.0012 12.2759 24.9762 12.3993 24.9261C12.5228 24.876 12.6349 24.8017 12.7293 24.7077C12.8237 24.6137 12.8984 24.5017 12.949 24.3785C12.9995 24.2552 13.025 24.1231 13.0239 23.9899C13.0228 23.8567 12.9952 23.725 12.9425 23.6026C12.8899 23.4803 12.8134 23.3696 12.7175 23.2771L8.42113 18.9652L10.0015 17.3848L14.3004 21.6838C14.3927 21.7799 14.5032 21.8566 14.6255 21.9095C14.7478 21.9623 14.8794 21.9902 15.0126 21.9916C15.1459 21.993 15.278 21.9677 15.4014 21.9174C15.5247 21.867 15.6368 21.7925 15.731 21.6983C15.8252 21.6041 15.8996 21.4921 15.95 21.3687C16.0004 21.2454 16.0256 21.1132 16.0243 20.98C16.0229 20.8468 15.995 20.7151 15.9421 20.5928C15.8893 20.4705 15.8125 20.36 15.7164 20.2677L11.4175 15.9688L13.0056 14.3807L17.3046 18.6796C17.3968 18.7757 17.5074 18.8524 17.6297 18.9053C17.752 18.9581 17.8836 18.9861 18.0168 18.9874C18.15 18.9888 18.2822 18.9635 18.4055 18.9132C18.5289 18.8628 18.6409 18.7884 18.7351 18.6941C18.8294 18.5999 18.9038 18.4879 18.9542 18.3645C19.0045 18.2412 19.0298 18.109 19.0284 17.9758C19.0271 17.8426 18.9991 17.711 18.9463 17.5887C18.8934 17.4664 18.8167 17.3558 18.7206 17.2636L14.4217 12.9646L16.0098 11.3765L20.3088 15.6754C20.401 15.7715 20.5115 15.8483 20.6338 15.9011C20.7561 15.954 20.8878 15.9819 21.021 15.9833C21.1542 15.9846 21.2864 15.9594 21.4097 15.909C21.5331 15.8586 21.6451 15.7842 21.7393 15.69C21.8335 15.5958 21.908 15.4837 21.9584 15.3604C22.0087 15.237 22.034 15.1049 22.0326 14.9716C22.0312 14.8384 22.0033 14.7068 21.9505 14.5845C21.8976 14.4622 21.8209 14.3517 21.7248 14.2594L17.4258 9.96046L19.014 8.37231L23.3129 12.6713C23.4052 12.7674 23.5157 12.8441 23.638 12.8969C23.7603 12.9498 23.8919 12.9777 24.0252 12.9791C24.1584 12.9804 24.2905 12.9552 24.4139 12.9048C24.5372 12.8545 24.6493 12.78 24.7435 12.6858C24.8377 12.5916 24.9122 12.4795 24.9625 12.3562C25.0129 12.2328 25.0381 12.1007 25.0368 11.9675C25.0354 11.8342 25.0075 11.7026 24.9546 11.5803C24.9018 11.458 24.8251 11.3475 24.729 11.2552L20.43 6.95628L22.0182 5.36814L26.3171 9.66708C26.4094 9.76318 26.5199 9.83991 26.6422 9.89277C26.7645 9.94562 26.8961 9.97355 27.0293 9.9749C27.1626 9.97626 27.2947 9.95101 27.4181 9.90065C27.5414 9.8503 27.6535 9.77583 27.7477 9.68162C27.8419 9.58741 27.9163 9.47536 27.9667 9.35201C28.0171 9.22866 28.0423 9.09651 28.041 8.96328C28.0396 8.83006 28.0117 8.69844 27.9588 8.57614C27.906 8.45385 27.8292 8.34332 27.7331 8.25105L20.7469 1.26478C19.9037 0.421619 18.7914 0 17.6788 0Z" fill="#6B4897"/>
</svg>
