<svg width="36" height="36" viewBox="0 0 36 36" fill="none" xmlns="http://www.w3.org/2000/svg">
<path d="M17.9765 0.856254C17.5444 0.862587 17.1324 1.04022 16.8312 1.35013C16.5299 1.66004 16.364 2.07687 16.3699 2.50902V3.42139C9.58519 4.17752 4.17939 9.58333 3.42326 16.3681H2.51089C2.29483 16.365 2.08032 16.4049 1.87983 16.4855C1.67933 16.5661 1.49685 16.6857 1.34298 16.8374C1.18911 16.9891 1.06693 17.1699 0.983534 17.3692C0.900139 17.5686 0.857193 17.7825 0.857193 17.9986C0.857193 18.2146 0.900139 18.4286 0.983534 18.6279C1.06693 18.8272 1.18911 19.008 1.34298 19.1597C1.49685 19.3114 1.67933 19.431 1.87983 19.5116C2.08032 19.5922 2.29483 19.6321 2.51089 19.629H3.42326C4.17939 26.4138 9.58519 31.8196 16.3699 32.5757V33.4881C16.3669 33.7042 16.4068 33.9187 16.4874 34.1192C16.5679 34.3197 16.6876 34.5021 16.8393 34.656C16.991 34.8099 17.1717 34.9321 17.3711 35.0155C17.5704 35.0988 17.7843 35.1418 18.0004 35.1418C18.2165 35.1418 18.4304 35.0988 18.6298 35.0155C18.8291 34.9321 19.0099 34.8099 19.1616 34.656C19.3133 34.5021 19.4329 34.3197 19.5135 34.1192C19.594 33.9187 19.634 33.7042 19.6309 33.4881V32.5757C26.4157 31.8196 31.8215 26.4138 32.5776 19.629H33.49C33.706 19.6321 33.9205 19.5922 34.121 19.5116C34.3215 19.431 34.504 19.3114 34.6579 19.1597C34.8117 19.008 34.9339 18.8272 35.0173 18.6279C35.1007 18.4286 35.1437 18.2146 35.1437 17.9986C35.1437 17.7825 35.1007 17.5686 35.0173 17.3692C34.9339 17.1699 34.8117 16.9891 34.6579 16.8374C34.504 16.6857 34.3215 16.5661 34.121 16.4855C33.9205 16.4049 33.706 16.365 33.49 16.3681H32.5776C31.8215 9.58333 26.4157 4.17752 19.6309 3.42139V2.50902C19.6339 2.29102 19.5931 2.07463 19.511 1.87265C19.4289 1.67068 19.3071 1.48722 19.1529 1.33313C18.9987 1.17903 18.8151 1.05744 18.613 0.975529C18.411 0.89362 18.1945 0.853062 17.9765 0.856254ZM16.3699 6.71419V7.27467C16.3669 7.49072 16.4068 7.70523 16.4874 7.90573C16.5679 8.10623 16.6876 8.28871 16.8393 8.44258C16.991 8.59645 17.1717 8.71863 17.3711 8.80203C17.5704 8.88542 17.7843 8.92837 18.0004 8.92837C18.2165 8.92837 18.4304 8.88542 18.6298 8.80203C18.8291 8.71863 19.0099 8.59645 19.1616 8.44258C19.3133 8.28871 19.4329 8.10623 19.5135 7.90573C19.594 7.70523 19.634 7.49072 19.6309 7.27467V6.71419C24.6399 7.42683 28.5721 11.359 29.2848 16.3681H28.7243C28.5083 16.365 28.2937 16.4049 28.0932 16.4855C27.8927 16.5661 27.7103 16.6857 27.5564 16.8374C27.4025 16.9891 27.2803 17.1699 27.197 17.3692C27.1136 17.5686 27.0706 17.7825 27.0706 17.9986C27.0706 18.2146 27.1136 18.4286 27.197 18.6279C27.2803 18.8272 27.4025 19.008 27.5564 19.1597C27.7103 19.3114 27.8927 19.431 28.0932 19.5116C28.2937 19.5922 28.5083 19.6321 28.7243 19.629H29.2848C28.5721 24.6381 24.6399 28.5703 19.6309 29.2829V28.7225C19.6341 28.5043 19.5935 28.2878 19.5115 28.0856C19.4295 27.8834 19.3077 27.6998 19.1535 27.5455C18.9992 27.3913 18.8156 27.2695 18.6134 27.1875C18.4112 27.1055 18.1947 27.0649 17.9765 27.0681C17.7624 27.0712 17.551 27.1165 17.3544 27.2013C17.1578 27.2862 16.9798 27.4089 16.8306 27.5625C16.6814 27.7162 16.564 27.8977 16.4849 28.0967C16.4059 28.2957 16.3668 28.5083 16.3699 28.7225V29.2829C11.3609 28.5703 7.4287 24.6381 6.71606 19.629H7.27653C7.49259 19.6321 7.7071 19.5922 7.9076 19.5116C8.1081 19.431 8.29058 19.3114 8.44445 19.1597C8.59832 19.008 8.7205 18.8272 8.80389 18.6279C8.88729 18.4286 8.93023 18.2146 8.93023 17.9986C8.93023 17.7825 8.88729 17.5686 8.80389 17.3692C8.7205 17.1699 8.59832 16.9891 8.44445 16.8374C8.29058 16.6857 8.1081 16.5661 7.9076 16.4855C7.7071 16.4049 7.49259 16.365 7.27653 16.3681H6.71606C7.4287 11.359 11.3609 7.42683 16.3699 6.71419ZM18.0004 14.7376C17.1356 14.7376 16.3061 15.0812 15.6946 15.6927C15.083 16.3043 14.7395 17.1337 14.7395 17.9986C14.7395 18.8634 15.083 19.6929 15.6946 20.3044C16.3061 20.9159 17.1356 21.2595 18.0004 21.2595C18.8653 21.2595 19.6947 20.9159 20.3063 20.3044C20.9178 19.6929 21.2614 18.8634 21.2614 17.9986C21.2614 17.1337 20.9178 16.3043 20.3063 15.6927C19.6947 15.0812 18.8653 14.7376 18.0004 14.7376Z" fill="#6B4897"/>
</svg>
