<svg width="20" height="20" viewBox="0 0 20 20" fill="none" xmlns="http://www.w3.org/2000/svg">
<path d="M9.51068 0C7.75652 0 6.29588 1.31072 6.05072 3H0.760682C0.661298 2.99859 0.562626 3.01696 0.4704 3.05402C0.378173 3.09108 0.294233 3.1461 0.223455 3.21588C0.152678 3.28566 0.096476 3.36882 0.0581152 3.46051C0.0197545 3.5522 0 3.65061 0 3.75C0 3.84939 0.0197545 3.9478 0.0581152 4.03949C0.096476 4.13118 0.152678 4.21434 0.223455 4.28412C0.294233 4.3539 0.378173 4.40892 0.4704 4.44598C0.562626 4.48304 0.661298 4.50141 0.760682 4.5H1.82904L3.08881 17.5146C3.22581 18.9311 4.40359 20 5.82709 20H13.1943C14.6178 20 15.7951 18.9311 15.9326 17.5146L17.1923 4.5H18.2607C18.3601 4.50141 18.4587 4.48304 18.551 4.44598C18.6432 4.40892 18.7271 4.3539 18.7979 4.28412C18.8687 4.21434 18.9249 4.13118 18.9632 4.03949C19.0016 3.9478 19.0214 3.84939 19.0214 3.75C19.0214 3.65061 19.0016 3.5522 18.9632 3.46051C18.9249 3.36882 18.8687 3.28566 18.7979 3.21588C18.7271 3.1461 18.6432 3.09108 18.551 3.05402C18.4587 3.01696 18.3601 2.99859 18.2607 3H12.9706C12.7255 1.31072 11.2648 0 9.51068 0ZM9.51068 1.5C10.4503 1.5 11.2211 2.13408 11.4413 3H7.58002C7.8003 2.13408 8.5711 1.5 9.51068 1.5ZM7.26068 7C7.67468 7 8.01068 7.3355 8.01068 7.75V15.25C8.01068 15.6645 7.67468 16 7.26068 16C6.84668 16 6.51068 15.6645 6.51068 15.25V7.75C6.51068 7.3355 6.84668 7 7.26068 7ZM11.7607 7C12.1747 7 12.5107 7.3355 12.5107 7.75V15.25C12.5107 15.6645 12.1747 16 11.7607 16C11.3467 16 11.0107 15.6645 11.0107 15.25V7.75C11.0107 7.3355 11.3467 7 11.7607 7Z" fill="#F94144"/>
</svg>
