<svg width="11" height="12" viewBox="0 0 11 12" fill="none" xmlns="http://www.w3.org/2000/svg">
<path d="M9.76603 4.27392L10.4595 3.50333C11.1798 2.70306 11.1798 1.40064 10.4595 0.600047C10.1108 0.212859 9.64722 0 9.15295 0C8.65868 0 8.19483 0.213175 7.84636 0.600363L7.15314 1.37063L9.76603 4.27392ZM6.5503 2.04048L1.41462 7.74693C1.30519 7.86852 1.22191 8.01853 1.1736 8.18117L0.22144 11.3775C0.170563 11.5474 0.210639 11.7347 0.324614 11.8614C0.406187 11.9517 0.514761 12 0.626177 12C0.671085 12 0.716277 11.9921 0.760332 11.976L3.63613 10.9177C3.78307 10.864 3.91836 10.7715 4.02779 10.6496L9.16318 4.94344L6.5503 2.04048Z" fill="#6B4897"/>
</svg>
