<svg width="14" height="12" viewBox="0 0 14 12" fill="none" xmlns="http://www.w3.org/2000/svg">
<path d="M3.77146 0C1.69457 0 0 1.69457 0 3.77146C0 5.17587 1.05863 6.49819 2.34913 7.85431C3.63962 9.21042 5.22806 10.5839 6.49358 11.8494C6.59003 11.9458 6.72082 12 6.8572 12C6.99357 12 7.12437 11.9458 7.22082 11.8494C8.48634 10.5839 10.0748 9.21042 11.3653 7.85431C12.6558 6.49819 13.7144 5.17587 13.7144 3.77146C13.7144 1.69457 12.0198 0 9.94294 0C8.75101 0 7.71326 0.639944 6.8572 1.72702C6.00114 0.639944 4.96339 0 3.77146 0Z" fill="white"/>
</svg>
