<svg width="18" height="16" viewBox="0 0 18 16" fill="none" xmlns="http://www.w3.org/2000/svg">
<path d="M5.09789 0.571411C2.5265 0.571411 0.428467 2.66944 0.428467 5.24084C0.428467 6.97963 1.73915 8.61679 3.33691 10.2958C4.93467 11.9748 6.9013 13.6753 8.46814 15.2421C8.58756 15.3615 8.74949 15.4286 8.91833 15.4286C9.08718 15.4286 9.24911 15.3615 9.36853 15.2421C10.9354 13.6753 12.902 11.9748 14.4998 10.2958C16.0975 8.61679 17.4082 6.97963 17.4082 5.24084C17.4082 2.66944 15.3102 0.571411 12.7388 0.571411C11.2631 0.571411 9.97822 1.36372 8.91833 2.70963C7.85845 1.36372 6.57362 0.571411 5.09789 0.571411ZM5.09789 1.84489C6.34105 1.84489 7.37585 2.50642 8.38026 4.09504C8.43769 4.18578 8.51714 4.26052 8.61122 4.31232C8.7053 4.36411 8.81094 4.39127 8.91833 4.39127C9.02573 4.39127 9.13137 4.36411 9.22545 4.31232C9.31953 4.26052 9.39898 4.18578 9.45641 4.09504C10.4608 2.50642 11.4956 1.84489 12.7388 1.84489C14.622 1.84489 16.1347 3.3576 16.1347 5.24084C16.1347 6.26125 15.1107 7.80779 13.5778 9.41861C12.18 10.8875 10.4424 12.4222 8.91833 13.9081C7.39427 12.4222 5.6567 10.8875 4.25886 9.41861C2.72598 7.80779 1.70195 6.26125 1.70195 5.24084C1.70195 3.3576 3.21465 1.84489 5.09789 1.84489Z" fill="#6B4897"/>
</svg>
