<svg width="25" height="25" viewBox="0 0 25 25" fill="none" xmlns="http://www.w3.org/2000/svg">
<path d="M12.5 0C5.59625 0 0 5.59625 0 12.5C0 19.4037 5.59625 25 12.5 25C19.4037 25 25 19.4037 25 12.5C25 5.59625 19.4037 0 12.5 0Z" fill="url(#paint0_linear_1_4281)"/>
<path d="M14.192 15.8132H17.427L17.9351 12.5269H14.192V10.7307C14.192 9.36569 14.6382 8.15507 15.9151 8.15507H17.967V5.28757C17.6063 5.23882 16.8438 5.13257 15.4032 5.13257C12.3945 5.13257 10.6307 6.72132 10.6307 10.3413V12.5276H7.5376V15.8138H10.6301V24.8463C11.2426 24.9376 11.8632 25.0001 12.5001 25.0001C13.0757 25.0001 13.6376 24.9476 14.192 24.8726V15.8132Z" fill="white"/>
<defs>
<linearGradient id="paint0_linear_1_4281" x1="3.74562" y1="3.74562" x2="22.8844" y2="22.8844" gradientUnits="userSpaceOnUse">
<stop stop-color="#2AA4F4"/>
<stop offset="1" stop-color="#007AD9"/>
</linearGradient>
</defs>
</svg>
