<svg width="25" height="22" viewBox="0 0 25 22" fill="none" xmlns="http://www.w3.org/2000/svg">
<path id="Vector" d="M17.4297 0C15.8946 0 14.599 1.03548 14.1987 2.44444H0.929722C0.808253 2.44273 0.687654 2.46517 0.574933 2.51046C0.462212 2.55576 0.359618 2.62301 0.273112 2.7083C0.186607 2.79359 0.117915 2.89522 0.0710297 3.00729C0.0241443 3.11936 0 3.23963 0 3.36111C0 3.48259 0.0241443 3.60286 0.0710297 3.71493C0.117915 3.827 0.186607 3.92863 0.273112 4.01392C0.359618 4.09922 0.462212 4.16646 0.574933 4.21176C0.687654 4.25705 0.808253 4.2795 0.929722 4.27778H14.1987C14.599 5.68674 15.8946 6.72222 17.4297 6.72222C18.9648 6.72222 20.2605 5.68674 20.6607 4.27778H23.5408C23.6623 4.2795 23.7829 4.25705 23.8956 4.21176C24.0083 4.16646 24.1109 4.09922 24.1974 4.01392C24.2839 3.92863 24.3526 3.827 24.3995 3.71493C24.4464 3.60286 24.4706 3.48259 24.4706 3.36111C24.4706 3.23963 24.4464 3.11936 24.3995 3.00729C24.3526 2.89522 24.2839 2.79359 24.1974 2.7083C24.1109 2.62301 24.0083 2.55576 23.8956 2.51046C23.7829 2.46517 23.6623 2.44273 23.5408 2.44444H20.6607C20.2605 1.03548 18.9648 0 17.4297 0ZM7.04083 7.63889C5.50575 7.63889 4.2101 8.67437 3.80982 10.0833H0.929722C0.808253 10.0816 0.687654 10.1041 0.574933 10.1494C0.462212 10.1946 0.359618 10.2619 0.273112 10.3472C0.186607 10.4325 0.117915 10.5341 0.0710297 10.6462C0.0241443 10.7582 0 10.8785 0 11C0 11.1215 0.0241443 11.2418 0.0710297 11.3538C0.117915 11.4659 0.186607 11.5675 0.273112 11.6528C0.359618 11.7381 0.462212 11.8054 0.574933 11.8506C0.687654 11.8959 0.808253 11.9184 0.929722 11.9167H3.80982C4.2101 13.3256 5.50575 14.3611 7.04083 14.3611C8.57591 14.3611 9.87156 13.3256 10.2718 11.9167H23.5408C23.6623 11.9184 23.7829 11.8959 23.8956 11.8506C24.0083 11.8054 24.1109 11.7381 24.1974 11.6528C24.2839 11.5675 24.3526 11.4659 24.3995 11.3538C24.4464 11.2418 24.4706 11.1215 24.4706 11C24.4706 10.8785 24.4464 10.7582 24.3995 10.6462C24.3526 10.5341 24.2839 10.4325 24.1974 10.3472C24.1109 10.2619 24.0083 10.1946 23.8956 10.1494C23.7829 10.1041 23.6623 10.0816 23.5408 10.0833H10.2718C9.87156 8.67437 8.57591 7.63889 7.04083 7.63889ZM16.2075 15.2778C14.6724 15.2778 13.3768 16.3133 12.9765 17.7222H0.929722C0.808253 17.7205 0.687654 17.7429 0.574933 17.7882C0.462212 17.8335 0.359618 17.9008 0.273112 17.9861C0.186607 18.0714 0.117915 18.173 0.0710297 18.2851C0.0241443 18.3971 0 18.5174 0 18.6389C0 18.7604 0.0241443 18.8806 0.0710297 18.9927C0.117915 19.1048 0.186607 19.2064 0.273112 19.2917C0.359618 19.377 0.462212 19.4442 0.574933 19.4895C0.687654 19.5348 0.808253 19.5573 0.929722 19.5556H12.9765C13.3768 20.9645 14.6724 22 16.2075 22C17.7426 22 19.0382 20.9645 19.4385 19.5556H23.5408C23.6623 19.5573 23.7829 19.5348 23.8956 19.4895C24.0083 19.4442 24.1109 19.377 24.1974 19.2917C24.2839 19.2064 24.3526 19.1048 24.3995 18.9927C24.4464 18.8806 24.4706 18.7604 24.4706 18.6389C24.4706 18.5174 24.4464 18.3971 24.3995 18.2851C24.3526 18.173 24.2839 18.0714 24.1974 17.9861C24.1109 17.9008 24.0083 17.8335 23.8956 17.7882C23.7829 17.7429 23.6623 17.7205 23.5408 17.7222H19.4385C19.0382 16.3133 17.7426 15.2778 16.2075 15.2778Z" fill="white"/>
</svg>
