<svg width="25" height="25" viewBox="0 0 25 25" fill="none" xmlns="http://www.w3.org/2000/svg">
<path d="M24.7569 10.0519H23.75V10H12.5V15H19.5644C18.5337 17.9106 15.7644 20 12.5 20C8.35812 20 5 16.6419 5 12.5C5 8.35812 8.35812 5 12.5 5C14.4119 5 16.1512 5.72125 17.4756 6.89937L21.0112 3.36375C18.7787 1.28312 15.7925 0 12.5 0C5.59687 0 0 5.59687 0 12.5C0 19.4031 5.59687 25 12.5 25C19.4031 25 25 19.4031 25 12.5C25 11.6619 24.9137 10.8437 24.7569 10.0519Z" fill="#FBC02D"/>
<path d="M1.44116 6.68187L5.54804 9.69375C6.65929 6.9425 9.35054 5 12.4999 5C14.4118 5 16.1512 5.72125 17.4755 6.89937L21.0112 3.36375C18.7787 1.28312 15.7924 0 12.4999 0C7.69866 0 3.53491 2.71062 1.44116 6.68187Z" fill="#E53935"/>
<path d="M12.4999 25C15.7287 25 18.6624 23.7644 20.8806 21.755L17.0118 18.4813C15.7568 19.4319 14.1968 20 12.4999 20C9.2487 20 6.48808 17.9269 5.44808 15.0338L1.37183 18.1744C3.44058 22.2225 7.64183 25 12.4999 25Z" fill="#4CAF50"/>
<path d="M24.7569 10.0519L24.7469 10H23.75H12.5V15H19.5644C19.0694 16.3981 18.17 17.6037 17.01 18.4819L17.0119 18.4806L20.8806 21.7544C20.6069 22.0031 25 18.75 25 12.5C25 11.6619 24.9137 10.8438 24.7569 10.0519Z" fill="#1565C0"/>
</svg>
