<svg width="30" height="28" viewBox="0 0 30 28" fill="none" xmlns="http://www.w3.org/2000/svg">
<path d="M19.4409 0.000260352C19.0354 -0.00504086 18.6285 0.0706318 18.2406 0.22567C17.4647 0.535053 16.8558 1.12833 16.5255 1.89588L12.7751 10.619H8.91592C8.44385 8.6285 6.65206 7.14277 4.51907 7.14277C2.02732 7.14277 0 9.1701 0 11.6618C0 14.1536 2.02732 16.1809 4.51907 16.1809H26.0715C27.7964 16.1809 29.2001 14.7772 29.2001 13.0523V11.6618C29.2001 11.0862 28.7336 10.619 28.1573 10.619H18.8285L22.4582 2.17425C22.6855 1.64586 22.4414 1.03283 21.9123 0.80549L20.6345 0.256902C20.2504 0.0917823 19.8465 0.00556156 19.4409 0.000260352ZM4.51907 9.92374C5.47919 9.92374 6.25717 10.7017 6.25717 11.6618C6.25717 12.622 5.47919 13.3999 4.51907 13.3999C3.55894 13.3999 2.78096 12.622 2.78096 11.6618C2.78096 10.7017 3.55894 9.92374 4.51907 9.92374ZM14.6001 12.0095C15.3683 12.0095 15.9905 12.6317 15.9905 13.3999C15.9905 14.1682 15.3683 14.7904 14.6001 14.7904C13.8318 14.7904 13.2096 14.1682 13.2096 13.3999C13.2096 12.6317 13.8318 12.0095 14.6001 12.0095ZM9.78769 17.5714L8.01564 21.6967C7.5387 22.8056 7.52243 24.0331 7.96947 25.1552C8.4172 26.2759 9.2742 27.1578 10.3838 27.6334C10.9629 27.8823 11.5655 28 12.1599 28C13.9126 28 15.5836 26.9748 16.3178 25.2652C16.7947 24.157 16.811 22.9281 16.364 21.8067C16.0483 21.0155 15.5296 20.3442 14.8621 19.8513L15.8412 17.5714H9.78769ZM12.1667 21.7428C13.1268 21.7428 13.9048 22.5208 13.9048 23.4809C13.9048 24.4411 13.1268 25.219 12.1667 25.219C11.2066 25.219 10.4286 24.4411 10.4286 23.4809C10.4286 22.5208 11.2066 21.7428 12.1667 21.7428Z" fill="#6B4897"/>
</svg>
