<svg width="19" height="20" viewBox="0 0 19 20" fill="none" xmlns="http://www.w3.org/2000/svg">
<path id="Vector" d="M17.1795 20H12.5641C11.8559 20 11.2821 19.4262 11.2821 18.7179V14.1026C11.2821 13.5359 10.8231 13.0769 10.2564 13.0769H8.20513C7.63846 13.0769 7.17949 13.5359 7.17949 14.1026V18.7179C7.17949 19.4262 6.60564 20 5.89744 20H1.28205C0.573846 20 0 19.4262 0 18.7179V8.92974C0 7.75077 0.540513 6.63692 1.46615 5.90769L8.75436 0.164615C9.03384 -0.0548718 9.42769 -0.0548718 9.70667 0.164615L16.9959 5.90769C17.9215 6.63692 18.4615 7.75026 18.4615 8.92872V18.7179C18.4615 19.4262 17.8877 20 17.1795 20Z" fill="#6B4897"/>
</svg>
