<svg width="14" height="12" viewBox="0 0 14 12" fill="none" xmlns="http://www.w3.org/2000/svg">
<path d="M2.49069 6.1026e-05C2.35827 0.00212972 2.23209 0.0566719 2.13986 0.151707C2.04763 0.246743 1.9969 0.3745 1.9988 0.506917V3.00541H1.83223C0.822172 3.00541 0 3.82725 0 4.83764V10.1678C0 11.1782 0.822172 12 1.83223 12H12.1593C13.1694 12 13.9916 11.1782 13.9916 10.1678V4.83764C13.9916 3.82725 13.1694 3.00541 12.1593 3.00541H11.9928V0.506917C11.9937 0.440036 11.9813 0.373642 11.9561 0.311671C11.9309 0.2497 11.8936 0.193414 11.8462 0.146147C11.7989 0.0988796 11.7426 0.0615944 11.6806 0.0365008C11.6186 0.0114072 11.5522 -0.000984218 11.4853 6.1026e-05C11.3529 0.00212972 11.2267 0.0566719 11.1344 0.151707C11.0422 0.246743 10.9915 0.3745 10.9934 0.506917V3.00541H9.99399V0.506917C9.99494 0.440036 9.98247 0.373642 9.95729 0.311671C9.93212 0.2497 9.89476 0.193414 9.84744 0.146147C9.80011 0.0988796 9.74377 0.0615944 9.68177 0.0365008C9.61977 0.0114072 9.55336 -0.000984218 9.48648 6.1026e-05C9.35406 0.00212972 9.22788 0.0566719 9.13565 0.151707C9.04342 0.246743 8.99269 0.3745 8.99459 0.506917V3.00541H7.99519V0.340351C7.99519 0.156462 7.84594 0.00721818 7.66206 0.00721818H5.66326C5.47937 0.00721818 5.33013 0.156462 5.33013 0.340351V3.00541H4.33073V0.340351C4.33134 0.295781 4.323 0.251542 4.3062 0.210254C4.28941 0.168965 4.2645 0.131467 4.23295 0.0999785C4.2014 0.0684904 4.16385 0.043653 4.12253 0.0269374C4.08121 0.0102217 4.03696 0.00196751 3.99239 0.00266363C3.90415 0.00404294 3.82006 0.0403745 3.75858 0.103684C3.6971 0.166994 3.66325 0.25211 3.66446 0.340351V3.00541H2.9982V0.506917C2.99915 0.440036 2.98668 0.373642 2.96151 0.311671C2.93633 0.2497 2.89897 0.193414 2.85165 0.146147C2.80432 0.0988796 2.74798 0.0615944 2.68598 0.0365008C2.62398 0.0114072 2.55757 -0.000984218 2.49069 6.1026e-05ZM1.9988 4.00481H2.9982V9.5015C2.9982 9.77734 2.77433 10.0012 2.4985 10.0012C2.22266 10.0012 1.9988 9.77734 1.9988 9.5015V4.00481ZM3.66446 4.00481H4.33073V9.66807C4.33073 9.85196 4.18148 10.0012 3.99759 10.0012C3.8137 10.0012 3.66446 9.85196 3.66446 9.66807V4.00481ZM5.33013 4.00481H7.99519V9.66807C7.99519 9.85196 7.84594 10.0012 7.66206 10.0012H5.66326C5.47937 10.0012 5.33013 9.85196 5.33013 9.66807V4.00481ZM8.99459 4.00481H9.99399V9.5015C9.99399 9.77734 9.77012 10.0012 9.49429 10.0012C9.21845 10.0012 8.99459 9.77734 8.99459 9.5015V4.00481ZM10.9934 4.00481H11.9928V9.5015C11.9928 9.77734 11.7689 10.0012 11.4931 10.0012C11.2172 10.0012 10.9934 9.77734 10.9934 9.5015V4.00481Z" fill="#6B4897"/>
</svg>
