<svg width="60" height="65" viewBox="0 0 60 65" fill="none" xmlns="http://www.w3.org/2000/svg">
<path d="M42.8601 0.000256598C43.4576 0.000451636 44.0364 0.20832 44.497 0.588145C44.9576 0.96797 45.2713 1.49604 45.3842 2.08161L49.6692 24.3184C49.7001 24.478 49.7158 24.6402 49.716 24.8028V33.3554C49.716 36.631 46.9993 39.3422 43.7171 39.3422H39.4321V56.4474C39.4367 56.8141 39.3625 57.1775 39.2145 57.5131C38.6611 61.6882 35.187 65 30.8621 65C26.1595 65 22.2922 61.1405 22.2922 56.4474C22.2922 51.7543 26.1595 47.8948 30.8621 47.8948C32.0826 47.8948 33.2352 48.1728 34.2901 48.6398V37.1974C34.2448 36.9219 34.2448 36.641 34.2901 36.3655V24.8028C34.2903 24.6402 34.306 24.478 34.337 24.3184L38.622 2.08161C38.7348 1.49604 39.0485 0.96797 39.5091 0.588145C39.9698 0.20832 40.5486 0.000451636 41.1461 0.000256598H42.8601ZM21.4352 0.000256598C21.7759 -0.00455179 22.1141 0.0582614 22.4302 0.185046C22.7464 0.311831 23.0341 0.500059 23.2768 0.73879C23.5194 0.977522 23.7121 1.262 23.8436 1.57568C23.9751 1.88937 24.0428 2.22601 24.0428 2.56604C24.0428 2.90607 23.9751 3.24271 23.8436 3.55639C23.7121 3.87008 23.5194 4.15455 23.2768 4.39328C23.0341 4.63201 22.7464 4.82024 22.4302 4.94703C22.1141 5.07381 21.7759 5.13662 21.4352 5.13182H12.0082V8.55286H21.4352C21.7759 8.54805 22.1141 8.61086 22.4302 8.73765C22.7464 8.86443 23.0341 9.05266 23.2768 9.29139C23.5194 9.53012 23.7121 9.8146 23.8436 10.1283C23.9751 10.442 24.0428 10.7786 24.0428 11.1186C24.0428 11.4587 23.9751 11.7953 23.8436 12.109C23.7121 12.4227 23.5194 12.7071 23.2768 12.9459C23.0341 13.1846 22.7464 13.3728 22.4302 13.4996C22.1141 13.6264 21.7759 13.6892 21.4352 13.6844H12.0082V17.1055H21.4352C21.7759 17.1006 22.1141 17.1635 22.4302 17.2902C22.7464 17.417 23.0341 17.6053 23.2768 17.844C23.5194 18.0827 23.7121 18.3672 23.8436 18.6809C23.9751 18.9946 24.0428 19.3312 24.0428 19.6712C24.0428 20.0113 23.9751 20.3479 23.8436 20.6616C23.7121 20.9753 23.5194 21.2597 23.2768 21.4985C23.0341 21.7372 22.7464 21.9254 22.4302 22.0522C22.1141 22.179 21.7759 22.2418 21.4352 22.237H12.0082V25.6581H21.4352C21.7759 25.6532 22.1141 25.7161 22.4302 25.8428C22.7464 25.9696 23.0341 26.1579 23.2768 26.3966C23.5194 26.6353 23.7121 26.9198 23.8436 27.2335C23.9751 27.5472 24.0428 27.8838 24.0428 28.2238C24.0428 28.5639 23.9751 28.9005 23.8436 29.2142C23.7121 29.5279 23.5194 29.8123 23.2768 30.0511C23.0341 30.2898 22.7464 30.478 22.4302 30.6048C22.1141 30.7316 21.7759 30.7944 21.4352 30.7896H12.0082V34.2107H21.4352C21.7759 34.2058 22.1141 34.2687 22.4302 34.3954C22.7464 34.5222 23.0341 34.7105 23.2768 34.9492C23.5194 35.1879 23.7121 35.4724 23.8436 35.7861C23.9751 36.0998 24.0428 36.4364 24.0428 36.7764C24.0428 37.1165 23.9751 37.4531 23.8436 37.7668C23.7121 38.0805 23.5194 38.3649 23.2768 38.6037C23.0341 38.8424 22.7464 39.0306 22.4302 39.1574C22.1141 39.2842 21.7759 39.347 21.4352 39.3422H12.0082V58.1579V59.0132C12.0082 62.2888 9.29145 65 6.00923 65C2.72701 65 0.0102539 62.2888 0.0102539 59.0132V5.98708C0.0102539 2.71151 2.72701 0.000256598 6.00923 0.000256598H21.4352ZM49.716 40.6084V46.662C50.5252 46.371 51.383 46.1843 52.287 46.1843C56.5163 46.1843 60 49.6609 60 53.8816V57.3027C60 61.5234 56.5163 65 52.287 65C48.0578 65 44.5741 61.5234 44.5741 57.3027V55.5921V53.8816V42.7131C46.528 42.5421 48.2934 41.7887 49.716 40.6084ZM52.287 51.3158C50.8361 51.3158 49.716 52.4337 49.716 53.8816V55.5921V57.3027C49.716 58.7506 50.8361 59.8684 52.287 59.8684C53.7379 59.8684 54.858 58.7506 54.858 57.3027V53.8816C54.858 52.4337 53.7379 51.3158 52.287 51.3158ZM30.8621 53.0264C28.9384 53.0264 27.4341 54.5276 27.4341 56.4474C27.4341 58.3672 28.9384 59.8684 30.8621 59.8684C32.7858 59.8684 34.2901 58.3672 34.2901 56.4474C34.2901 54.5276 32.7858 53.0264 30.8621 53.0264Z" fill="#6B4897"/>
</svg>
