<svg width="20" height="20" viewBox="0 0 20 20" fill="none" xmlns="http://www.w3.org/2000/svg">
<path d="M10 0C4.48904 0 0 4.48904 0 10C0 15.511 4.48904 20 10 20C12.6772 20 15.1417 18.9435 16.9414 17.2217C17.0363 17.1309 17.1124 17.0223 17.1654 16.9021C17.2183 16.7819 17.247 16.6524 17.25 16.5211C17.2529 16.3898 17.2299 16.2592 17.1823 16.1368C17.1347 16.0143 17.0635 15.9025 16.9727 15.8076C16.8819 15.7127 16.7733 15.6366 16.6531 15.5836C16.5329 15.5307 16.4034 15.502 16.2721 15.4991C16.1408 15.4962 16.0102 15.5192 15.8878 15.5668C15.7653 15.6143 15.6535 15.6856 15.5586 15.7764C14.1223 17.1505 12.1508 18 10 18C5.56996 18 2 14.43 2 10C2 5.56996 5.56996 2 10 2C12.1743 2 14.1207 2.83116 15.5566 4.21875C15.6501 4.31442 15.7618 4.39037 15.8851 4.44211C16.0085 4.49385 16.1409 4.52032 16.2747 4.51997C16.4084 4.51962 16.5407 4.49245 16.6638 4.44006C16.7868 4.38768 16.8981 4.31114 16.9911 4.21498C17.084 4.11883 17.1567 4.005 17.2049 3.88025C17.2531 3.75549 17.2758 3.62233 17.2716 3.48865C17.2675 3.35498 17.2365 3.2235 17.1806 3.10199C17.1248 2.98048 17.0451 2.87142 16.9463 2.78125C15.1452 1.04084 12.6877 0 10 0ZM15.9893 5.99023C15.7904 5.99048 15.5961 6.05 15.4313 6.16119C15.2664 6.27238 15.1385 6.43018 15.0637 6.61446C14.989 6.79873 14.9709 7.00109 15.0117 7.19571C15.0525 7.39032 15.1505 7.56834 15.293 7.70703L16.5859 9H7.5C7.36749 8.99813 7.23593 9.02261 7.11296 9.07202C6.98999 9.12143 6.87807 9.1948 6.7837 9.28784C6.68933 9.38088 6.61439 9.49176 6.56324 9.61401C6.5121 9.73627 6.48576 9.86747 6.48576 10C6.48576 10.1325 6.5121 10.2637 6.56324 10.386C6.61439 10.5082 6.68933 10.6191 6.7837 10.7122C6.87807 10.8052 6.98999 10.8786 7.11296 10.928C7.23593 10.9774 7.36749 11.0019 7.5 11H16.5859L15.293 12.293C15.197 12.3851 15.1204 12.4955 15.0676 12.6176C15.0148 12.7397 14.9869 12.8712 14.9856 13.0042C14.9842 13.1373 15.0094 13.2692 15.0597 13.3924C15.11 13.5156 15.1844 13.6275 15.2784 13.7216C15.3725 13.8156 15.4844 13.89 15.6076 13.9403C15.7308 13.9906 15.8627 14.0158 15.9958 14.0144C16.1288 14.0131 16.2603 13.9852 16.3824 13.9324C16.5045 13.8796 16.6149 13.803 16.707 13.707L19.707 10.707C19.8945 10.5195 19.9998 10.2652 19.9998 10C19.9998 9.73483 19.8945 9.48051 19.707 9.29297L16.707 6.29297C16.6137 6.19706 16.5021 6.12084 16.3788 6.06884C16.2555 6.01684 16.1231 5.99011 15.9893 5.99023Z" fill="#6B4897"/>
</svg>
