<svg width="28" height="28" viewBox="0 0 28 28" fill="none" xmlns="http://www.w3.org/2000/svg">
<path d="M12.076 11.6715L8.23215 14.9457L13.0508 19.7643L16.325 15.9205L12.076 11.6715ZM27.522 0.474495C26.9279 -0.119609 25.979 -0.160896 25.3359 0.379326L13.1452 10.7618L17.2354 14.852L27.6165 2.66058C28.1567 2.01749 28.1154 1.0686 27.522 0.474495ZM7.06284 15.7554L1.02103 19.1332C0.368142 19.525 -0.0272282 20.2374 0.00146234 20.9987C0.0231552 21.5781 0.109227 22.2891 0.349948 23.0519L2.43946 21.7986C2.77045 21.5991 3.20011 21.7069 3.39954 22.0386C3.59828 22.3703 3.49121 22.7999 3.15952 22.9987L0.916061 24.345C1.20996 24.8636 1.58574 25.3877 2.09587 25.8978C2.75506 26.557 3.43873 27.0098 4.10351 27.3233L4.97263 25.585C5.14547 25.2393 5.56533 25.0994 5.91172 25.2722C6.2574 25.4451 6.39736 25.8656 6.22451 26.2113L5.43587 27.7886C6.01108 27.9258 6.54501 27.9817 6.99776 27.9985C7.75911 28.0272 8.47147 27.6326 8.86335 26.979L12.2411 20.9351L7.06284 15.7554Z" fill="#6B4897"/>
</svg>
