<svg width="28" height="28" viewBox="0 0 28 28" fill="none" xmlns="http://www.w3.org/2000/svg">
<path d="M4.18271 4.70714e-05C4.04489 0.00202067 3.90882 0.0311194 3.78225 0.085682C3.65568 0.140245 3.5411 0.219202 3.44505 0.318047C3.34899 0.416892 3.27335 0.533688 3.22243 0.661767C3.17152 0.789846 3.14633 0.926699 3.1483 1.06451V5.96187C3.14859 6.21637 3.24135 6.46209 3.4093 6.6533C3.4093 6.6533 8.7246 12.727 10.3126 14.5418C10.7924 15.091 11.4865 15.4068 12.2161 15.4068H12.2174C13.2265 15.4068 14.157 14.8435 14.6251 13.9488C15.0934 13.0543 15.026 11.9675 14.4502 11.138C12.6633 8.56325 10.3485 5.22691 10.1445 4.93294V1.06451C10.1465 0.911348 10.1149 0.759611 10.052 0.619954C9.98907 0.480297 9.89634 0.356105 9.78031 0.256098C9.66429 0.156091 9.52778 0.0826917 9.38037 0.0410545C9.23296 -0.000582779 9.07823 -0.00944902 8.92703 0.015078H4.36991C4.30808 0.00448343 4.24543 -0.000547016 4.18271 4.70714e-05ZM23.4374 12.6083C22.213 12.6083 21.2071 13.0926 20.5542 13.8272C19.9012 14.5617 19.5894 15.5137 19.5894 16.4562C19.5894 17.3988 19.9012 18.3507 20.5542 19.0853C21.2071 19.8198 22.213 20.3041 23.4374 20.3041C24.6617 20.3041 25.669 19.8198 26.3219 19.0853C26.9749 18.3507 27.2853 17.3988 27.2853 16.4562C27.2853 15.5137 26.9749 14.5617 26.3219 13.8272C25.669 13.0926 24.6617 12.6083 23.4374 12.6083ZM5.78419 15.4068C3.36629 15.4068 1.39925 17.3745 1.39925 19.7917V20.1183C1.39925 20.9579 1.64446 21.7376 2.05514 22.4044H4.89736V22.224C4.076 21.877 3.49812 21.0635 3.49812 20.1183V19.7917C3.49812 18.5317 4.52417 17.507 5.78419 17.507H9.0951V20.434C8.87332 20.3542 8.63908 20.3041 8.39001 20.3041C7.23633 20.3041 6.29661 21.2425 6.29661 22.3962V22.403V23.1026C6.29661 23.4895 5.98318 23.8023 5.59698 23.8023H3.41749H2.09204C0.939058 23.8023 0 24.7413 0 25.8943V25.908C0 26.4586 0.22318 26.9975 0.61217 27.3865C1.00116 27.7755 1.54143 28 2.09204 28H8.37361C9.54338 28 10.4943 27.049 10.4943 25.8793V23.8023H13.2928V25.2015C13.2915 25.2942 13.3087 25.3863 13.3432 25.4723C13.3778 25.5583 13.4291 25.6366 13.4942 25.7027C13.5593 25.7687 13.6369 25.8211 13.7224 25.8569C13.8079 25.8927 13.8997 25.9111 13.9925 25.9111C14.0852 25.9111 14.177 25.8927 14.2625 25.8569C14.348 25.8211 14.4256 25.7687 14.4907 25.7027C14.5558 25.6366 14.6071 25.5583 14.6417 25.4723C14.6763 25.3863 14.6934 25.2942 14.6921 25.2015V25.8793C14.6921 26.446 14.9129 26.9774 15.3138 27.3783C15.714 27.7792 16.2475 28 16.8142 28H21.6965C22.2541 28 22.7783 27.7818 23.175 27.3865C23.5647 26.9968 23.7872 26.4589 23.7872 25.8943C23.7872 25.3437 23.5647 24.8048 23.175 24.4144C22.779 24.0198 22.2541 23.8023 21.6965 23.8023H18.8898V20.9969C18.8898 20.9948 18.8885 20.9936 18.8885 20.9915L18.8898 19.6004L18.8885 19.4706C18.8248 17.3976 17.2947 15.7394 15.3029 15.4546C14.5116 16.3061 13.3968 16.806 12.1983 16.806C11.0887 16.806 10.0352 16.3268 9.30553 15.4929C9.28244 15.467 9.27316 15.4355 9.25497 15.4068H5.78419Z" fill="#6B4897"/>
</svg>
