<svg width="23" height="16" viewBox="0 0 23 16" fill="none" xmlns="http://www.w3.org/2000/svg">
<path id="Vector" d="M22.4 4.26667V3.46667C22.4 1.5552 20.8448 0 18.9333 0H3.46667C1.5552 0 0 1.5552 0 3.46667V4.26667H22.4ZM0 6.4V12.5333C0 14.4427 1.55733 16 3.46667 16H18.9333C20.8427 16 22.4 14.4427 22.4 12.5333V6.4H0ZM17.8667 13.3333C17.344 13.3333 16.8693 13.12 16.5333 12.768C16.1973 13.12 15.7227 13.3333 15.2 13.3333C14.1707 13.3333 13.3333 12.496 13.3333 11.4667C13.3333 10.4373 14.1707 9.6 15.2 9.6C15.7227 9.6 16.1973 9.81333 16.5333 10.1653C16.8693 9.81333 17.344 9.6 17.8667 9.6C18.896 9.6 19.7333 10.4373 19.7333 11.4667C19.7333 12.496 18.896 13.3333 17.8667 13.3333ZM16.5333 10.1653C16.2027 10.5013 16 10.96 16 11.4667C16 11.9733 16.2027 12.432 16.5333 12.768C16.864 12.432 17.0667 11.9733 17.0667 11.4667C17.0667 10.96 16.864 10.5013 16.5333 10.1653Z" fill="#6B4897"/>
</svg>
