<svg width="29" height="28" viewBox="0 0 29 28" fill="none" xmlns="http://www.w3.org/2000/svg">
<path d="M8.25641 0C6.60872 0 5.16008 0.860821 4.33013 2.15385H21.1795C24.1489 2.15385 26.5641 4.56903 26.5641 7.53846V19.3622C27.8571 18.5315 28.7179 17.0836 28.7179 15.4359V7.53846C28.7179 3.38154 25.3364 0 21.1795 0H8.25641ZM4.66667 3.58974C2.09354 3.58974 0 5.68328 0 8.25641V18.281C0 20.8542 2.09354 22.9477 4.66667 22.9477H5.02564V26.2037C5.02564 26.8822 5.4013 27.4957 6.00581 27.8037C6.26499 27.9358 6.54335 28 6.82192 28C7.19309 28 7.56194 27.8834 7.8764 27.655L14.3506 22.9477H20.4615C23.0347 22.9477 25.1282 20.8542 25.1282 18.281V8.25641C25.1282 5.68328 23.0347 3.58974 20.4615 3.58974H4.66667ZM8.25641 12.1785C8.85087 12.1785 9.33333 12.6609 9.33333 13.2554C9.33333 13.8499 8.85087 14.3323 8.25641 14.3323C7.66195 14.3323 7.17949 13.8499 7.17949 13.2554C7.17949 12.6609 7.66195 12.1785 8.25641 12.1785ZM12.5641 12.1785C13.1586 12.1785 13.641 12.6609 13.641 13.2554C13.641 13.8499 13.1586 14.3323 12.5641 14.3323C11.9696 14.3323 11.4872 13.8499 11.4872 13.2554C11.4872 12.6609 11.9696 12.1785 12.5641 12.1785ZM16.8718 12.1785C17.4663 12.1785 17.9487 12.6609 17.9487 13.2554C17.9487 13.8499 17.4663 14.3323 16.8718 14.3323C16.2773 14.3323 15.7949 13.8499 15.7949 13.2554C15.7949 12.6609 16.2773 12.1785 16.8718 12.1785Z" fill="#6B4897"/>
</svg>
