<svg width="17" height="18" viewBox="0 0 17 18" fill="none" xmlns="http://www.w3.org/2000/svg">
<path d="M14.9995 14.7692H1.61641C1.06024 14.7692 0.550233 14.489 0.252534 14.0191C-0.0451645 13.5493 -0.0820883 12.9691 0.154686 12.466L1.38471 9.99121V7.09868C1.38471 3.29598 4.27908 0.181454 7.97424 0.00745C9.89013 -0.0793211 11.7036 0.594078 13.0859 1.91272C14.4696 3.23229 15.2312 5.01156 15.2312 6.92283V9.99121L16.4543 12.4526C16.6975 12.9691 16.661 13.5497 16.3633 14.0196C16.0656 14.4895 15.5556 14.7692 14.9995 14.7692ZM5.58019 15.6923C5.80081 16.9998 6.93807 18 8.30794 18C9.67782 18 10.8146 16.9998 11.0357 15.6923H5.58019Z" fill="#6B4897"/>
</svg>
