<svg width="16" height="20" viewBox="0 0 16 20" fill="none" xmlns="http://www.w3.org/2000/svg">
<path d="M8 0C5.79971 0 4 1.79971 4 4V6H2.25C1.0095 6 0 7.0095 0 8.25V17.75C0 18.9905 1.0095 20 2.25 20H13.75C14.9905 20 16 18.9905 16 17.75V8.25C16 7.0095 14.9905 6 13.75 6H12V4C12 1.79971 10.2003 0 8 0ZM8 1.5C9.38971 1.5 10.5 2.61029 10.5 4V6H5.5V4C5.5 2.61029 6.61029 1.5 8 1.5ZM4.5 12C5.0525 12 5.5 12.4475 5.5 13C5.5 13.5525 5.0525 14 4.5 14C3.9475 14 3.5 13.5525 3.5 13C3.5 12.4475 3.9475 12 4.5 12ZM8 12C8.5525 12 9 12.4475 9 13C9 13.5525 8.5525 14 8 14C7.4475 14 7 13.5525 7 13C7 12.4475 7.4475 12 8 12ZM11.5 12C12.0525 12 12.5 12.4475 12.5 13C12.5 13.5525 12.0525 14 11.5 14C10.9475 14 10.5 13.5525 10.5 13C10.5 12.4475 10.9475 12 11.5 12Z" fill="#6B4897"/>
</svg>
