<svg width="120" height="120" viewBox="0 0 120 120" fill="none" xmlns="http://www.w3.org/2000/svg">
<path d="M110.55 27.813L55.68 82.683C54.804 83.562 53.652 84 52.5 84C51.348 84 50.196 83.562 49.317 82.683L34.317 67.683C32.559 65.925 32.559 63.078 34.317 61.32C36.075 59.562 38.922 59.562 40.68 61.32L52.497 73.137L105.087 20.547C94.083 7.983 77.973 0 60 0C26.916 0 0 26.916 0 60C0 93.084 26.916 120 60 120C93.084 120 120 93.084 120 60C120 48.153 116.502 37.125 110.55 27.813Z" fill="#6B4897"/>
</svg>
