<svg width="20" height="20" viewBox="0 0 20 20" fill="none" xmlns="http://www.w3.org/2000/svg">
<path d="M4.2928 0C3.6448 0 3.07719 0.459727 2.94319 1.09473L0.0281497 14.9326C-0.0528503 15.3181 0.042845 15.714 0.290845 16.0195C0.538845 16.325 0.905658 16.5 1.29866 16.5H3.50471L6.11311 4.28027C6.33361 3.24877 7.25831 2.5 8.31331 2.5H15.3485C15.211 2.243 15.054 1.9947 14.867 1.7627C13.963 0.642195 12.618 0 11.1785 0H4.2928ZM8.31331 4C7.96131 4 7.65341 4.24975 7.57991 4.59375L6.37288 10.25H9.73909C12.5071 10.25 14.9407 8.28655 15.5262 5.58105L15.868 4H8.31331ZM17.3914 4.05176L16.992 5.89844C16.254 9.31344 13.2331 11.75 9.73909 11.75H6.05256L4.54963 18.791C4.41713 19.413 4.89117 20 5.52717 20H9.1219C9.4764 20 9.78327 19.7513 9.85627 19.4043L10.9422 14.25H13.9871C16.7531 14.25 19.1448 12.3202 19.7293 9.61719L19.785 9.35742C19.993 8.39342 19.948 7.37832 19.574 6.46582C19.125 5.37032 18.3404 4.55226 17.3914 4.05176Z" fill="#6B4897"/>
</svg>
