<svg width="13" height="13" viewBox="0 0 13 13" fill="none" xmlns="http://www.w3.org/2000/svg">
<path id="Vector" d="M11.5153 4.63008L12.3501 3.79527C13.2171 2.92831 13.2171 1.51736 12.3501 0.650051C11.9303 0.230597 11.3723 0 10.7773 0C10.1824 0 9.624 0.230939 9.20454 0.650393L8.37008 1.48485L11.5153 4.63008ZM7.64442 2.21052L1.46243 8.3925C1.33071 8.52423 1.23047 8.68674 1.1723 8.86294L0.0261606 12.3257C-0.0350811 12.5097 0.0131595 12.7126 0.150355 12.8498C0.248547 12.9477 0.379241 13 0.513357 13C0.567414 13 0.621813 12.9914 0.674843 12.974L4.13654 11.8275C4.31342 11.7694 4.47628 11.6691 4.608 11.537L10.7896 5.3554L7.64442 2.21052Z" fill="#6B4897"/>
</svg>
