<svg width="12" height="14" viewBox="0 0 12 14" fill="none" xmlns="http://www.w3.org/2000/svg">
<path id="Vector" d="M5.95 0C2.6691 0 0 2.6691 0 5.95C0 7.3626 0.50715 8.73355 1.43255 9.8168C1.53825 9.93685 4.032 12.7704 4.865 13.5646C5.16915 13.8547 5.5594 14 5.95 14C6.3406 14 6.73085 13.8547 7.03535 13.5646C8.0038 12.641 10.3687 9.92985 10.4723 9.81085C11.3928 8.73355 11.9 7.3626 11.9 5.95C11.9 2.6691 9.2309 0 5.95 0ZM5.95 7.7C4.98365 7.7 4.2 6.91635 4.2 5.95C4.2 4.98365 4.98365 4.2 5.95 4.2C6.91635 4.2 7.7 4.98365 7.7 5.95C7.7 6.91635 6.91635 7.7 5.95 7.7Z" fill="#6B4897"/>
</svg>
