<svg width="26" height="20" viewBox="0 0 26 20" fill="none" xmlns="http://www.w3.org/2000/svg">
<path d="M8.89795 0C7.55716 0 6.46873 1.0995 6.46873 2.45793V2.94033H25.2869V2.45793C25.2869 1.0995 24.1984 0 22.8576 0H8.89795ZM6.46873 4.70453V10.7552L10.6208 8.10888C11.103 7.80897 11.6608 7.65635 12.2253 7.65635C12.9898 7.65635 13.7192 7.93265 14.2778 8.44427C14.8953 9.00293 15.2546 9.77325 15.284 10.6024C15.3134 11.4316 15.0135 12.2195 14.449 12.8134L13.784 13.5255H22.8576C24.1984 13.5255 25.2869 12.426 25.2869 11.0676V4.70453H6.46873ZM5.2926 4.76885L3.72825 5.25125C3.02845 5.46883 2.40524 5.90364 1.95831 6.4917L0.599552 8.28002C0.211428 8.79164 0 9.41471 0 10.0557V14.7017V18.8158V18.8181C0.000156073 18.8985 0.00857714 18.9777 0.0241199 19.0536V19.0547C0.0398087 19.1309 0.0633723 19.2041 0.0930339 19.2741C0.109251 19.3124 0.131576 19.3471 0.151611 19.3832C0.168361 19.4134 0.181747 19.4455 0.200999 19.474L0.202148 19.4751C0.244425 19.5374 0.292576 19.5955 0.345719 19.6485C0.398824 19.7015 0.456761 19.75 0.519152 19.7921C0.706943 19.9193 0.933555 19.9943 1.17613 19.9943H3.5284L3.52955 19.9908L4.10383 19.9897C5.40816 19.9885 6.6529 19.4469 7.54264 18.4931L13.5876 12.0129C14.3179 11.2472 14.275 10.0293 13.4911 9.31833C12.8701 8.75555 11.9509 8.67056 11.2376 9.11043L6.1747 12.3437L6.23327 12.2851C5.79222 12.4439 5.2926 12.1199 5.2926 11.6201V4.76885ZM12.6848 14.7017L8.40292 19.2948C8.16181 19.5535 7.89727 19.7883 7.615 20L10.5737 19.9943C11.8792 19.9943 13.1199 19.4538 14.0079 18.5011L17.5536 14.7017H12.6848Z" fill="#6B4897"/>
</svg>
