<svg width="17" height="20" viewBox="0 0 17 20" fill="none" xmlns="http://www.w3.org/2000/svg">
<path d="M8.29268 0C5.6074 0 3.41463 2.19277 3.41463 4.87805V5.36585H1.70732C0.773193 5.36585 0 6.13905 0 7.07317V18.2927C0 19.2268 0.773193 20 1.70732 20H14.878C15.8122 20 16.5854 19.2268 16.5854 18.2927V7.07317C16.5854 6.13905 15.8122 5.36585 14.878 5.36585H13.1707V4.87805C13.1707 2.19277 10.978 0 8.29268 0ZM8.29268 1.46341C10.1869 1.46341 11.7073 2.98382 11.7073 4.87805V5.36585H4.87805V4.87805C4.87805 2.98382 6.39845 1.46341 8.29268 1.46341ZM8.29268 7.80488C10.9824 7.80488 13.1707 9.99317 13.1707 12.6829C13.1707 15.3727 10.9824 17.561 8.29268 17.561C5.60293 17.561 3.41463 15.3727 3.41463 12.6829C3.41463 9.99317 5.60293 7.80488 8.29268 7.80488ZM8.29268 9.26829C6.41024 9.26829 4.87805 10.8005 4.87805 12.6829C4.87805 14.5654 6.41024 16.0976 8.29268 16.0976C10.1751 16.0976 11.7073 14.5654 11.7073 12.6829C11.7073 10.8005 10.1751 9.26829 8.29268 9.26829ZM7.87824 10.7755C7.82946 10.9121 7.80488 11.0634 7.80488 11.2195C7.80488 12.0293 8.45854 12.6829 9.26829 12.6829C9.62927 12.6829 9.95595 12.5508 10.2096 12.3361C10.234 12.4483 10.2439 12.5659 10.2439 12.6829C10.2439 13.761 9.37073 14.6341 8.29268 14.6341C7.21463 14.6341 6.34146 13.761 6.34146 12.6829C6.34146 11.7463 7.00019 10.9658 7.87824 10.7755Z" fill="#6B4897"/>
</svg>
