<svg width="16" height="20" viewBox="0 0 16 20" fill="none" xmlns="http://www.w3.org/2000/svg">
<path d="M8 0C6.67392 0 5.40215 0.526784 4.46447 1.46447C3.52678 2.40215 3 3.67392 3 5C3 6.32608 3.52678 7.59785 4.46447 8.53553C5.40215 9.47322 6.67392 10 8 10C9.32608 10 10.5979 9.47322 11.5355 8.53553C12.4732 7.59785 13 6.32608 13 5C13 3.67392 12.4732 2.40215 11.5355 1.46447C10.5979 0.526784 9.32608 0 8 0ZM14.0105 12H1.9895C0.8925 12 0 12.8925 0 13.9895V14.75C0 16.406 0.9425 17.838 2.6535 18.7815C4.077 19.5675 5.976 20 8 20C11.853 20 16 18.357 16 14.75V13.9895C16 12.8925 15.1075 12 14.0105 12Z" fill="#6B4897"/>
</svg>
