<svg width="16" height="20" viewBox="0 0 16 20" fill="none" xmlns="http://www.w3.org/2000/svg">
<path id="Vector" opacity="0.5" d="M8 0C5.24746 0 3 2.24746 3 5C3 7.75254 5.24746 10 8 10C10.7525 10 13 7.75254 13 5C13 2.24746 10.7525 0 8 0ZM2.25 12C1.01625 12 0 13.0162 0 14.25V14.8496C0 16.32 0.932357 17.639 2.35449 18.5459C3.77663 19.4528 5.72242 20 8 20C10.2776 20 12.2234 19.4528 13.6455 18.5459C15.0676 17.639 16 16.32 16 14.8496V14.25C16 13.0162 14.9838 12 13.75 12H2.25Z" fill="#7F7F7F"/>
</svg>
