<svg width="23" height="20" viewBox="0 0 23 20" fill="none" xmlns="http://www.w3.org/2000/svg">
<path d="M6.28577 0C2.82428 0 0 2.82428 0 6.28577C0 8.62645 1.76438 10.8303 3.91521 13.0905C6.06604 15.3507 8.71343 17.6398 10.8226 19.749C10.9834 19.9097 11.2014 20 11.4287 20C11.656 20 11.8739 19.9097 12.0347 19.749C14.1439 17.6398 16.7913 15.3507 18.9421 13.0905C21.0929 10.8303 22.8573 8.62645 22.8573 6.28577C22.8573 2.82428 20.0331 0 16.5716 0C14.585 0 12.8554 1.06657 11.4287 2.87837C10.0019 1.06657 8.27232 0 6.28577 0Z" fill="#6B4897"/>
</svg>
