<svg width="18" height="18" viewBox="0 0 18 18" fill="none" xmlns="http://www.w3.org/2000/svg">
<path id="Vector" d="M7.24417 0C3.25516 0 0 3.25516 0 7.24417C0 11.2332 3.25516 14.4883 7.24417 14.4883C8.87943 14.4883 10.3861 13.9353 11.601 13.0149L16.2799 17.6928C16.3719 17.7887 16.4822 17.8652 16.6042 17.918C16.7263 17.9707 16.8576 17.9986 16.9905 17.9999C17.1235 18.0013 17.2553 17.9761 17.3784 17.9259C17.5015 17.8756 17.6133 17.8013 17.7073 17.7073C17.8013 17.6133 17.8756 17.5015 17.9259 17.3784C17.9761 17.2553 18.0013 17.1235 17.9999 16.9905C17.9986 16.8576 17.9707 16.7263 17.918 16.6042C17.8652 16.4822 17.7887 16.3719 17.6928 16.2799L13.0149 11.601C13.9353 10.3861 14.4883 8.87943 14.4883 7.24417C14.4883 3.25516 11.2332 0 7.24417 0ZM7.24417 1.99839C10.1532 1.99839 12.4899 4.33517 12.4899 7.24417C12.4899 8.6409 11.9474 9.90233 11.0653 10.8399C10.9794 10.9021 10.904 10.9775 10.8419 11.0634C9.90408 11.9466 8.6419 12.4899 7.24417 12.4899C4.33517 12.4899 1.99839 10.1532 1.99839 7.24417C1.99839 4.33517 4.33517 1.99839 7.24417 1.99839Z" fill="#7F7F7F"/>
</svg>
