<svg width="23" height="18" viewBox="0 0 23 18" fill="none" xmlns="http://www.w3.org/2000/svg">
<path d="M21.9826 0.992948C22.0559 0.895006 22.0988 0.777703 22.1061 0.65558C22.1134 0.533457 22.0846 0.411885 22.0235 0.305936C21.9623 0.199987 21.8714 0.11432 21.762 0.059556C21.6526 0.0047918 21.5295 -0.0166617 21.408 -0.00214433L1.96154 2.31743L1.96033 2.3171L1.35636 2.3882C1.24195 2.40174 1.1335 2.44663 1.043 2.51793C0.952505 2.58923 0.883475 2.68416 0.843539 2.79222C0.803603 2.90029 0.794314 3.01729 0.8167 3.13031C0.839086 3.24332 0.892275 3.34795 0.970391 3.43263L1.38131 3.8792L1.38187 3.88194L6.38464 9.33501L8.60576 16.3941L8.60752 16.3971L8.7888 16.9763C8.82337 17.086 8.88753 17.184 8.97422 17.2595C9.06091 17.3351 9.16677 17.3853 9.28014 17.4046C9.39351 17.4238 9.51001 17.4115 9.6168 17.3688C9.72359 17.3261 9.81653 17.2548 9.8854 17.1627L21.9826 0.992948ZM19.1579 2.68191L7.6853 9.30565L7.53506 8.82799C7.50756 8.74036 7.46108 8.65986 7.39894 8.59223L7.0604 8.22329L18.5331 1.59955L20.1077 1.41198L19.1592 2.68223L19.1579 2.68191Z" fill="#6B4897"/>
</svg>
