<svg width="20" height="20" viewBox="0 0 20 20" fill="none" xmlns="http://www.w3.org/2000/svg">
<path d="M17.0927 11.1408C16.7362 10.8793 16.5232 10.4592 16.5232 10.0167C16.5232 9.57422 16.7362 9.15421 17.0922 8.8932L18.7392 7.68566C19.0017 7.49266 19.1102 7.15315 19.0077 6.84364C18.5837 5.56961 17.9132 4.40757 17.0142 3.38905C16.7977 3.14504 16.4487 3.06804 16.1501 3.19904L14.2956 4.01456C13.8916 4.19257 13.4211 4.16707 13.0376 3.94556C12.6545 3.72456 12.3975 3.33054 12.349 2.89103L12.126 0.854977C12.0905 0.530968 11.8495 0.266961 11.5305 0.201459C10.232 -0.0640484 8.86745 -0.0685484 7.54591 0.196459C7.2249 0.260961 6.9834 0.524968 6.94789 0.850477L6.72689 2.87353C6.67839 3.31354 6.42138 3.70756 6.03737 3.92856C5.65436 4.14957 5.18535 4.17607 4.77983 3.99756L2.91528 3.17754C2.61928 3.04654 2.26927 3.12254 2.05276 3.36605C1.15074 4.38057 0.477217 5.54111 0.0487056 6.81414C-0.0552972 7.12315 0.0527057 7.46466 0.316213 7.65816L1.95276 8.8582C2.30977 9.1202 2.52277 9.54021 2.52277 9.98273C2.52277 10.4252 2.30977 10.8453 1.95376 11.1063L0.306713 12.3138C0.0442054 12.5068 -0.0642974 12.8463 0.0382054 13.1558C0.462217 14.4298 1.13274 15.5919 2.03176 16.6104C2.24827 16.8549 2.59828 16.9324 2.89578 16.8004L4.75033 15.9849C5.15435 15.8069 5.62436 15.8324 6.00837 16.0539C6.39138 16.2749 6.64839 16.6689 6.69689 17.1084L6.91989 19.1445C6.95539 19.4685 7.1964 19.7325 7.51541 19.798C8.17243 19.932 8.84745 20 9.52296 20C10.182 20 10.847 19.9335 11.4995 19.8025C11.8205 19.738 12.062 19.474 12.0975 19.1485L12.319 17.1254C12.3675 16.6854 12.6245 16.2914 13.0086 16.0704C13.3916 15.8499 13.8611 15.8239 14.2661 16.0014L16.1306 16.8214C16.4277 16.9529 16.7767 16.8769 16.9932 16.6329C17.8952 15.6184 18.5687 14.4579 18.9972 13.1848C19.1012 12.8758 18.9932 12.5343 18.7297 12.3408L17.0927 11.1408ZM9.52296 13.4998C7.58991 13.4998 6.02287 11.9328 6.02287 9.99973C6.02287 8.06668 7.58991 6.49963 9.52296 6.49963C11.456 6.49963 13.0231 8.06668 13.0231 9.99973C13.0231 11.9328 11.456 13.4998 9.52296 13.4998Z" fill="#6B4897"/>
</svg>
