<svg width="28" height="28" viewBox="0 0 28 28" fill="none" xmlns="http://www.w3.org/2000/svg">
<path d="M23.2105 0C22.4748 0.000924987 21.7492 0.171336 21.0899 0.498013C20.4307 0.824689 19.8556 1.29885 19.4092 1.8837C18.9629 2.46856 18.6572 3.14839 18.5161 3.87045C18.3749 4.5925 18.402 5.33738 18.5952 6.04729L18.5103 6.08902L8.64926 11.0181L8.56435 11.0598C8.11719 10.4848 7.54477 10.0194 6.89063 9.69892C6.2365 9.37846 5.51789 9.21143 4.78947 9.21053C3.51923 9.21053 2.301 9.71513 1.4028 10.6133C0.504604 11.5115 0 12.7298 0 14C0 15.2702 0.504604 16.4885 1.4028 17.3867C2.301 18.2849 3.51923 18.7895 4.78947 18.7895C5.51837 18.789 6.23755 18.6222 6.89222 18.3017C7.54689 17.9812 8.11977 17.5156 8.56723 16.9402L8.64926 16.9819L18.5103 21.911L18.5909 21.9513C18.3973 22.6616 18.3701 23.407 18.5114 24.1296C18.6527 24.8522 18.9586 25.5325 19.4055 26.1176C19.8524 26.7027 20.4282 27.1769 21.0881 27.5034C21.748 27.8299 22.4743 27.9998 23.2105 28C24.4808 28 25.699 27.4954 26.5972 26.5972C27.4954 25.699 28 24.4808 28 23.2105C28 21.9403 27.4954 20.7221 26.5972 19.8239C25.699 18.9257 24.4808 18.4211 23.2105 18.4211C22.5392 18.422 21.8756 18.5641 21.2627 18.838C20.6498 19.112 20.1014 19.5117 19.653 20.0113L19.4975 19.9336L9.63795 15.0045L9.48396 14.9282C9.60438 14.3157 9.60389 13.6855 9.48252 13.0732L9.63795 12.9955L19.4975 8.06641L19.6486 7.99013C20.0977 8.49 20.6469 8.88979 21.2605 9.16352C21.8742 9.43725 22.5386 9.57879 23.2105 9.57895C24.4808 9.57895 25.699 9.07434 26.5972 8.17614C27.4954 7.27794 28 6.05972 28 4.78947C28 3.51923 27.4954 2.301 26.5972 1.4028C25.699 0.504604 24.4808 0 23.2105 0Z" fill="#6B4897"/>
</svg>
