<svg width="14" height="28" viewBox="0 0 14 28" fill="none" xmlns="http://www.w3.org/2000/svg">
<path d="M8.59091 0C6.20455 0 4.29719 0.619862 3.03888 1.97496C1.78058 3.33007 1.27273 5.27273 1.27273 7.63636C1.27222 7.68837 1.27596 7.74033 1.28391 7.79173C0.5071 8.42647 0 9.37985 0 10.459V25.1674C0 26.7291 1.27093 28 2.83256 28H11.1674C12.7291 28 14 26.7291 14 25.1674V10.459C14 9.37985 13.4929 8.42647 12.7161 7.79173C12.724 7.74033 12.7278 7.68837 12.7273 7.63636C12.7273 6.69094 12.4128 5.84992 11.943 5.09091H13.0455C13.2986 5.09088 13.5414 4.99031 13.7204 4.8113C13.8994 4.63229 14 4.38952 14 4.13636V0.954545C14 0.701392 13.8994 0.458614 13.7204 0.279608C13.5414 0.100601 13.2986 2.53115e-05 13.0455 0H8.59091ZM8.59091 1.90909H12.0909V3.18182H9.22727C8.99338 3.18152 8.76751 3.2671 8.59254 3.42231C8.41757 3.57752 8.30567 3.79157 8.27808 4.02383C8.25048 4.25609 8.30911 4.4904 8.44284 4.68229C8.57657 4.87418 8.7761 5.01029 9.00355 5.06481C9.00355 5.06481 9.7013 5.29288 9.94318 5.49734C10.4559 5.93086 10.696 6.35915 10.7797 7.01119C10.7004 7.00574 10.6216 7 10.541 7H3.45898C3.37127 7 3.28531 7.00598 3.19922 7.01243C3.28146 5.26556 3.71251 4.05675 4.43839 3.27504C5.24826 2.40286 6.52273 1.90909 8.59091 1.90909Z" fill="#6B4897"/>
</svg>
