<svg width="42" height="35" viewBox="0 0 42 35" fill="none" xmlns="http://www.w3.org/2000/svg">
<path id="Vector" d="M9.29688 0C4.17047 0 0 4.17047 0 9.29688V10.9375H13.125C13.7277 10.9375 14.2188 10.4475 14.2188 9.84375C14.2188 9.24 13.7277 8.75 13.125 8.75H11.4844C10.5777 8.75 9.84375 8.015 9.84375 7.10938C9.84375 6.20375 10.5777 5.46875 11.4844 5.46875H13.125C15.5378 5.46875 17.5 7.43094 17.5 9.84375C17.5 11.877 16.1 13.5739 14.2188 14.0628V22.4219C14.2188 22.5138 14.2063 22.6035 14.191 22.691C16.2035 24.2956 17.5 26.763 17.5 29.5312C17.5 31.5995 16.7742 33.5005 15.5688 35H25.9937C24.7883 33.5005 24.0625 31.5995 24.0625 29.5312C24.0625 26.763 25.359 24.2956 27.3715 22.691C27.3562 22.6035 27.3438 22.5138 27.3438 22.4219V14.0628C25.4625 13.5739 24.0625 11.877 24.0625 9.84375C24.0625 7.43094 26.0247 5.46875 28.4375 5.46875H28.9844C29.8911 5.46875 30.625 6.20375 30.625 7.10938C30.625 8.015 29.8911 8.75 28.9844 8.75H28.4375C27.8348 8.75 27.3438 9.24 27.3438 9.84375C27.3438 10.4475 27.8348 10.9375 28.4375 10.9375H41.5625V9.29688C41.5625 4.17047 37.392 0 32.2656 0H9.29688ZM0 14.2188V20.7812H8.75C9.50688 20.7812 10.2364 20.8881 10.9375 21.0696V14.2188H0ZM30.625 14.2188V21.0696C31.3261 20.8881 32.0556 20.7812 32.8125 20.7812H41.5625V14.2188H30.625ZM0 24.0625V25.7031C0 30.7059 3.97684 34.7872 8.93372 34.9808C11.8628 34.8823 14.2188 32.4844 14.2188 29.5312C14.2188 26.5158 11.7655 24.0625 8.75 24.0625H0ZM32.8125 24.0625C29.797 24.0625 27.3438 26.5158 27.3438 29.5312C27.3438 32.4844 29.6997 34.8823 32.6288 34.9808C37.5857 34.7872 41.5625 30.7059 41.5625 25.7031V24.0625H32.8125Z" fill="white"/>
</svg>
