<svg width="14" height="14" viewBox="0 0 14 14" fill="none" xmlns="http://www.w3.org/2000/svg">
<path d="M7 0C3.1402 0 0 3.1402 0 7C0 10.8598 3.1402 14 7 14C10.8598 14 14 10.8598 14 7C14 3.1402 10.8598 0 7 0ZM8.59635 9.29635C8.4938 9.3989 8.3594 9.45 8.225 9.45C8.0906 9.45 7.9562 9.3989 7.85365 9.29635L6.10365 7.54635C6.0053 7.44765 5.95 7.3143 5.95 7.175V3.325C5.95 3.03485 6.18485 2.8 6.475 2.8C6.76515 2.8 7 3.03485 7 3.325V6.95765L8.59635 8.554C8.8011 8.75875 8.8011 9.09125 8.59635 9.29635Z" fill="#6B4897"/>
</svg>
