<svg width="20" height="20" viewBox="0 0 20 20" fill="none" xmlns="http://www.w3.org/2000/svg">
<path d="M5.2744 0C2.36756 0 0.0112441 2.35632 0.0112441 5.26316C0.0112441 8.17 2.36756 10.5263 5.2744 10.5263C8.18124 10.5263 10.5376 8.17 10.5376 5.26316C10.5376 2.35632 8.18124 0 5.2744 0ZM14.9958 2.09807C14.7908 2.10404 14.5961 2.18957 14.4531 2.33655L12.3478 4.44182C12.1998 4.58988 12.1167 4.79065 12.1167 5C12.1167 5.20935 12.1998 5.41012 12.3478 5.55818L14.4531 7.66345C14.5258 7.73921 14.6129 7.7997 14.7094 7.84137C14.8058 7.88304 14.9095 7.90506 15.0146 7.90613C15.1196 7.90719 15.2238 7.88729 15.321 7.84759C15.4183 7.80789 15.5066 7.74918 15.5809 7.67491C15.6552 7.60064 15.7139 7.5123 15.7536 7.41505C15.7933 7.31781 15.8132 7.21362 15.8121 7.10859C15.811 7.00356 15.789 6.89979 15.7474 6.80338C15.7057 6.70696 15.6452 6.61983 15.5694 6.54708L14.8118 5.78947H18.6955C18.8001 5.79095 18.9039 5.77163 19.001 5.73262C19.0981 5.6936 19.1865 5.63569 19.261 5.56223C19.3355 5.48878 19.3946 5.40124 19.435 5.30473C19.4754 5.20821 19.4962 5.10463 19.4962 5C19.4962 4.89538 19.4754 4.79179 19.435 4.69527C19.3946 4.59876 19.3355 4.51122 19.261 4.43777C19.1865 4.36431 19.0981 4.3064 19.001 4.26739C18.9039 4.22837 18.8001 4.20905 18.6955 4.21053H14.8118L15.5694 3.45292C15.6833 3.342 15.7611 3.19927 15.7925 3.04343C15.824 2.88758 15.8076 2.72588 15.7456 2.57947C15.6836 2.43307 15.5789 2.30879 15.4451 2.22289C15.3113 2.137 15.1547 2.09349 14.9958 2.09807ZM4.30298 2.10526H6.61075C6.90128 2.10526 7.13707 2.34053 7.13707 2.63158C7.13707 2.92263 6.90128 3.15789 6.61075 3.15789H4.75014L4.57847 4.21053H5.2744C6.43546 4.21053 7.37967 5.15474 7.37967 6.31579C7.37967 7.45684 6.38546 8.42105 5.20861 8.42105C3.98914 8.42105 3.4055 7.92691 3.34286 7.87007C3.12707 7.67586 3.11062 7.34264 3.30483 7.12685C3.49641 6.91369 3.82248 6.89322 4.03879 7.08059C4.06721 7.1027 4.41967 7.36842 5.20861 7.36842C5.8044 7.36842 6.32703 6.87632 6.32703 6.31579C6.32703 5.73526 5.85493 5.26316 5.2744 5.26316H3.95861C3.8044 5.26316 3.65771 5.19499 3.55771 5.0771C3.45771 4.9592 3.41476 4.80363 3.43949 4.65152L3.78386 2.54626C3.82544 2.29205 4.04508 2.10526 4.30298 2.10526ZM10.2744 10.5263C9.83809 10.5263 9.48493 10.88 9.48493 11.3158V17.6316C9.48493 18.9374 10.5476 20 11.8533 20H17.1165C18.4223 20 19.4849 18.9374 19.4849 17.6316V11.3158C19.4849 10.88 19.1318 10.5263 18.6955 10.5263H10.2744ZM4.47671 12.6234C4.31959 12.6234 4.16606 12.6703 4.03575 12.7581C3.90545 12.8459 3.8043 12.9705 3.74524 13.1161C3.68618 13.2617 3.67191 13.4216 3.70425 13.5754C3.73658 13.7291 3.81405 13.8698 3.92675 13.9792L4.68435 14.7368H0.800718C0.696103 14.7354 0.592238 14.7547 0.495158 14.7937C0.398077 14.8327 0.309719 14.8906 0.235216 14.9641C0.160714 15.0375 0.101554 15.1251 0.0611739 15.2216C0.0207942 15.3181 0 15.4217 0 15.5263C0 15.6309 0.0207942 15.7345 0.0611739 15.831C0.101554 15.9276 0.160714 16.0151 0.235216 16.0885C0.309719 16.162 0.398077 16.2199 0.495158 16.2589C0.592238 16.2979 0.696103 16.3173 0.800718 16.3158H4.68435L3.92675 17.0734C3.85098 17.1461 3.79049 17.2333 3.74882 17.3297C3.70715 17.4261 3.68513 17.5299 3.68407 17.6349C3.683 17.7399 3.7029 17.8441 3.7426 17.9414C3.7823 18.0386 3.84101 18.127 3.91528 18.2012C3.98955 18.2755 4.0779 18.3342 4.17514 18.3739C4.27239 18.4136 4.37657 18.4335 4.48161 18.4324C4.58664 18.4314 4.6904 18.4094 4.78681 18.3677C4.88323 18.326 4.97036 18.2655 5.04311 18.1898L7.14837 16.0845C7.29637 15.9364 7.37951 15.7357 7.37951 15.5263C7.37951 15.317 7.29637 15.1162 7.14837 14.9681L5.04311 12.8629C4.96952 12.7871 4.88148 12.7268 4.78419 12.6857C4.68689 12.6446 4.58234 12.6234 4.47671 12.6234ZM13.4323 12.6316H15.5376C15.9739 12.6316 16.327 12.9853 16.327 13.4211C16.327 13.8568 15.9739 14.2105 15.5376 14.2105H13.4323C12.996 14.2105 12.6428 13.8568 12.6428 13.4211C12.6428 12.9853 12.996 12.6316 13.4323 12.6316Z" fill="#6B4897"/>
</svg>
