<svg width="28" height="22" viewBox="0 0 28 22" fill="none" xmlns="http://www.w3.org/2000/svg">
<path d="M27.3136 2.60118C26.3101 3.04571 25.2308 3.34206 24.0919 3.48247C25.2495 2.79529 26.1405 1.69918 26.5585 0.403765C25.4754 1.03853 24.2751 1.50506 22.9984 1.75094C21.9786 0.670353 20.5241 0 18.9129 0C15.818 0 13.3087 2.48665 13.3087 5.55306C13.3087 5.98724 13.3598 6.40977 13.4549 6.82C8.79871 6.58641 4.66853 4.37282 1.90559 1.01329C1.42029 1.83441 1.14724 2.79529 1.14724 3.80988C1.14724 5.73747 2.134 7.43471 3.63906 8.43441C2.72024 8.40659 1.85576 8.151 1.09871 7.74076C1.09871 7.75759 1.09871 7.78218 1.09871 7.80612C1.09871 10.4998 3.03082 12.7432 5.59188 13.2537C5.12406 13.3818 4.62906 13.453 4.11918 13.453C3.75747 13.453 3.40482 13.4122 3.06318 13.3508C3.77624 15.5521 5.84488 17.1613 8.29594 17.2092C6.37806 18.6961 3.96259 19.5865 1.33618 19.5865C0.882589 19.5865 0.438706 19.5606 0 19.5075C2.48276 21.0792 5.42882 22 8.59165 22C18.8974 22 24.5358 13.5371 24.5358 6.19494C24.5358 5.95424 24.5281 5.71482 24.5171 5.478C25.6171 4.70088 26.565 3.72124 27.3136 2.60118Z" fill="url(#paint0_linear_1_4293)"/>
<defs>
<linearGradient id="paint0_linear_1_4293" x1="4.17224" y1="0.848941" x2="23.8797" y2="20.5564" gradientUnits="userSpaceOnUse">
<stop stop-color="#2AA4F4"/>
<stop offset="1" stop-color="#007AD9"/>
</linearGradient>
</defs>
</svg>
