<svg width="39" height="30" viewBox="0 0 39 30" fill="none" xmlns="http://www.w3.org/2000/svg">
<path id="Vector" d="M2.96703 0C1.32775 0 0 1.3425 0 3V9.07324H4.48242C5.70632 9.07324 6.17456 10.2334 6.17456 10.2334L7.21476 15.5771C5.98344 11.5661 1.23725 9.62128 0 9.17578V27C0 28.6575 1.32775 30 2.96703 30H35.6044C37.2437 30 38.5714 28.6575 38.5714 27V3C38.5714 1.3425 37.2437 0 35.6044 0H2.96703ZM24.2839 8.80664C25.717 8.80664 27.1814 9.38672 27.1814 9.38672L26.6801 11.9883C26.6801 11.9883 25.5373 11.2295 24.536 11.2295C22.9991 11.2295 22.4614 11.7364 22.4614 12.4189C22.4614 13.7554 26.7526 13.9718 26.7526 16.9688C26.7511 19.4587 23.6751 21.1934 21.4617 21.1934C19.2454 21.1934 18.1006 20.5107 18.1006 20.5107L18.6367 18.0146C18.6367 18.0146 19.8175 18.7002 21.6066 18.7002C23.3928 18.7002 23.6406 17.9417 23.6406 17.6162C23.6406 15.7037 19.3553 16.2137 19.3553 12.4922C19.3553 10.4342 21.0335 8.80664 24.2839 8.80664ZM10.4165 9.04395H13.7254L9.0199 20.8242H5.61244L3.13219 11.2852C3.13219 11.2852 5.74564 12.6234 7.35674 16.2744C7.42646 16.7184 7.58854 17.4316 7.58854 17.4316L10.4165 9.04395ZM14.9453 9.04395H18.0746L16.2057 20.8242H13.1141L14.9453 9.04395ZM31.7449 9.04395H34.9959L37.3893 20.8242H34.5758L34.2426 19.1455H30.3744L29.7399 20.8242H26.6685L31.7449 9.04395ZM32.9126 12.4424L31.2321 16.8926H33.7935L32.9126 12.4424Z" fill="#6B4897"/>
</svg>
