<svg width="22" height="18" viewBox="0 0 22 18" fill="none" xmlns="http://www.w3.org/2000/svg">
<path id="Vector" d="M19.094 0.000279654C18.9188 0.00538405 18.7525 0.0784477 18.6303 0.204002L12.5994 6.2349C12.5972 6.23395 12.5954 6.23234 12.5933 6.23139L11.5325 7.29215C11.535 7.29275 11.5371 7.29418 11.5395 7.29479L7.73728 11.097C7.73661 11.0943 7.73531 11.0919 7.73465 11.0891L6.67388 12.1499C6.67494 12.1523 6.67633 12.1545 6.6774 12.1569L1.99528 16.839C1.93056 16.9012 1.87889 16.9756 1.84329 17.058C1.80769 17.1403 1.78889 17.229 1.78798 17.3187C1.78706 17.4084 1.80406 17.4974 1.83798 17.5805C1.87189 17.6635 1.92204 17.739 1.98549 17.8025C2.04893 17.8659 2.1244 17.916 2.20747 17.95C2.29054 17.9839 2.37954 18.0009 2.46926 18C2.55898 17.9991 2.64762 17.9802 2.72998 17.9447C2.81234 17.9091 2.88677 17.8574 2.94892 17.7927L7.42379 13.3178C8.24748 14.2513 9.44937 14.8431 10.7896 14.8431C13.2687 14.8431 15.2856 12.8262 15.2856 10.3471C15.2856 9.00713 14.6937 7.80509 13.7603 6.9813L15.7589 4.98271C17.9402 6.2599 19.6326 8.32252 20.2539 10.7379C20.3304 11.0436 20.6043 11.2463 20.9055 11.2463C20.9595 11.2463 21.0175 11.2415 21.0715 11.2235C21.4356 11.1336 21.6515 10.7656 21.5571 10.406C20.8648 7.70721 19.0897 5.43443 16.759 3.98253L19.5839 1.15764C19.6812 1.06288 19.7477 0.940963 19.7745 0.807835C19.8014 0.674707 19.7874 0.536573 19.7345 0.41151C19.6815 0.286447 19.592 0.180281 19.4778 0.106907C19.3635 0.0335337 19.2297 -0.00363012 19.094 0.000279654ZM10.7852 2.2544C5.76324 2.2544 1.23606 5.6807 0.0221562 10.406C-0.0722588 10.7656 0.143582 11.1336 0.507754 11.2235C0.86743 11.3179 1.23536 11.1021 1.32528 10.7379C2.37284 6.66904 6.44213 3.60319 10.7852 3.60319C11.554 3.60319 12.3135 3.69722 13.0464 3.88155L14.1528 2.776C13.0783 2.43431 11.9452 2.2544 10.7852 2.2544ZM10.7896 5.85116C8.31054 5.85116 6.29366 7.86805 6.29366 10.3471C6.29366 10.4357 6.30144 10.5229 6.30683 10.6106L7.98052 8.93686C8.28489 8.33351 8.776 7.8424 9.37936 7.53802L11.0522 5.86434C10.9649 5.85894 10.8782 5.85116 10.7896 5.85116ZM12.8005 7.94108C13.4912 8.51786 13.9368 9.37856 13.9368 10.3471C13.9368 12.0821 12.525 13.4943 10.7896 13.4943C9.82105 13.4943 8.96035 13.0489 8.38357 12.358L9.66035 11.0812C9.78255 11.2696 9.94983 11.4244 10.147 11.5318C10.3442 11.6391 10.5651 11.6955 10.7896 11.6959C11.0799 11.6952 11.3622 11.6008 11.5945 11.4268C11.8269 11.2528 11.9969 11.0086 12.0794 10.7302C12.1618 10.4519 12.1523 10.1544 12.0522 9.88196C11.9521 9.60949 11.7667 9.37659 11.5237 9.21786L12.8005 7.94108Z" fill="#7F7F7F"/>
</svg>
