<svg width="23" height="13" viewBox="0 0 23 13" fill="none" xmlns="http://www.w3.org/2000/svg">
<path d="M11.4935 0C6.06952 0 1.29044 3.73204 0.0225803 8.62238C-0.0248271 8.8057 0.00306531 9.00021 0.100121 9.16311C0.197177 9.32601 0.355447 9.44397 0.540112 9.49103C0.724778 9.53809 0.920712 9.5104 1.08481 9.41406C1.24891 9.31771 1.36774 9.16059 1.41514 8.97727C2.50763 4.76336 6.73999 1.427 11.4935 1.427C16.2469 1.427 20.4927 4.76454 21.5849 8.97727C21.6323 9.16059 21.7511 9.31771 21.9152 9.41406C22.0793 9.5104 22.2752 9.53809 22.4599 9.49103C22.6446 9.44397 22.8028 9.32601 22.8999 9.16311C22.9969 9.00021 23.0248 8.8057 22.9774 8.62238C21.7093 3.73087 16.9174 0 11.4935 0ZM11.5009 3.80533C8.95176 3.80533 6.87029 5.87163 6.87029 8.4022C6.87029 10.9328 8.95176 13 11.5009 13C14.0501 13 16.1325 10.9328 16.1325 8.4022C16.1325 5.87163 14.0501 3.80533 11.5009 3.80533ZM11.5009 5.23233C13.2732 5.23233 14.695 6.64283 14.695 8.4022C14.695 10.1616 13.2732 11.573 11.5009 11.573C9.72864 11.573 8.30777 10.1616 8.30777 8.4022C8.30777 6.64283 9.72864 5.23233 11.5009 5.23233Z" fill="#7F7F7F"/>
</svg>
