<svg width="29" height="28" viewBox="0 0 29 28" fill="none" xmlns="http://www.w3.org/2000/svg">
<path d="M14.1109 3.28928e-07C14.0619 3.28928e-07 14.0054 -0.000163733 13.9564 0.00683627C12.3464 0.188836 10.6531 3.199 9.78508 7.7H18.4366C17.5686 3.199 15.8754 0.188836 14.2654 0.00683627C14.2164 -0.000163733 14.1599 3.28928e-07 14.1109 3.28928e-07ZM10.1214 0.581055C6.39741 1.68006 3.3243 4.291 1.6093 7.7H7.64954C8.13954 4.9 8.97341 2.36606 10.1214 0.581055ZM18.1003 0.581055C19.2483 2.36606 20.0822 4.9 20.5722 7.7H26.6124C24.8974 4.291 21.8243 1.68006 18.1003 0.581055ZM7.55793 9.81914C7.35476 9.82962 7.16158 9.91055 7.01162 10.048C6.86166 10.1855 6.76429 10.371 6.73625 10.5725L6.16067 14.1832L5.1134 11.7633C5.04543 11.6069 4.93327 11.4738 4.7907 11.3803C4.64813 11.2869 4.48135 11.2371 4.31086 11.2371C4.14037 11.2371 3.9736 11.2869 3.83103 11.3803C3.68845 11.4738 3.57629 11.6069 3.50832 11.7633L2.46106 14.1832L1.88547 10.5725C1.85584 10.3681 1.75492 10.1809 1.60056 10.0438C1.44619 9.90665 1.24831 9.82854 1.04192 9.82324C0.91253 9.81994 0.784021 9.84539 0.665652 9.89774C0.547282 9.9501 0.442 10.0281 0.357392 10.126C0.272784 10.2239 0.210956 10.3394 0.176364 10.4642C0.141772 10.5889 0.135277 10.7197 0.157348 10.8473L1.20735 17.4275C1.23748 17.6143 1.32733 17.7863 1.46343 17.9177C1.59954 18.0491 1.77457 18.1329 1.96229 18.1565C2.15001 18.18 2.34031 18.1421 2.50467 18.0484C2.66903 17.9547 2.7986 17.8103 2.87395 17.6367L4.31086 14.3131L5.74778 17.6367C5.82313 17.8103 5.9527 17.9547 6.11706 18.0484C6.28142 18.1421 6.47172 18.18 6.65944 18.1565C6.84716 18.1329 7.02219 18.0491 7.15829 17.9177C7.2944 17.7863 7.38425 17.6143 7.41438 17.4275L8.46438 10.8473C8.4876 10.7175 8.48122 10.5843 8.44573 10.4574C8.41023 10.3304 8.34653 10.2132 8.25939 10.1144C8.17224 10.0155 8.06389 9.93762 7.94243 9.8865C7.82097 9.83538 7.68954 9.81236 7.55793 9.81914ZM17.3579 9.81914C17.1548 9.82962 16.9616 9.91055 16.8116 10.048C16.6617 10.1855 16.5643 10.371 16.5363 10.5725L15.9607 14.1832L14.9134 11.7633C14.8454 11.6069 14.7333 11.4738 14.5907 11.3803C14.4481 11.2869 14.2814 11.2371 14.1109 11.2371C13.9404 11.2371 13.7736 11.2869 13.631 11.3803C13.4885 11.4738 13.3763 11.6069 13.3083 11.7633L12.2611 14.1832L11.6855 10.5725C11.6558 10.3681 11.5549 10.1809 11.4006 10.0438C11.2462 9.90665 11.0483 9.82854 10.8419 9.82324C10.7125 9.81994 10.584 9.84539 10.4657 9.89774C10.3473 9.9501 10.242 10.0281 10.1574 10.126C10.0728 10.2239 10.011 10.3394 9.97636 10.4642C9.94177 10.5889 9.93528 10.7197 9.95735 10.8473L11.0073 17.4275C11.0375 17.6143 11.1273 17.7863 11.2634 17.9177C11.3995 18.0491 11.5746 18.1329 11.7623 18.1565C11.95 18.18 12.1403 18.1421 12.3047 18.0484C12.469 17.9547 12.5986 17.8103 12.6739 17.6367L14.1109 14.3131L15.5478 17.6367C15.6231 17.8103 15.7527 17.9547 15.9171 18.0484C16.0814 18.1421 16.2717 18.18 16.4594 18.1565C16.6472 18.1329 16.8222 18.0491 16.9583 17.9177C17.0944 17.7863 17.1842 17.6143 17.2144 17.4275L18.2644 10.8473C18.2876 10.7175 18.2812 10.5843 18.2457 10.4574C18.2102 10.3304 18.1465 10.2132 18.0594 10.1144C17.9722 10.0155 17.8639 9.93762 17.7424 9.8865C17.621 9.83538 17.4895 9.81236 17.3579 9.81914ZM27.1579 9.81914C26.9548 9.82962 26.7616 9.91055 26.6116 10.048C26.4617 10.1855 26.3643 10.371 26.3363 10.5725L25.7607 14.1832L24.7134 11.7633C24.6454 11.6069 24.5333 11.4738 24.3907 11.3803C24.2481 11.2869 24.0814 11.2371 23.9109 11.2371C23.7404 11.2371 23.5736 11.2869 23.431 11.3803C23.2885 11.4738 23.1763 11.6069 23.1083 11.7633L22.0611 14.1832L21.4855 10.5725C21.4558 10.3681 21.3549 10.1809 21.2006 10.0438C21.0462 9.90665 20.8483 9.82854 20.6419 9.82324C20.5125 9.81994 20.384 9.84539 20.2656 9.89774C20.1473 9.9501 20.042 10.0281 19.9574 10.126C19.8728 10.2239 19.811 10.3394 19.7764 10.4642C19.7418 10.5889 19.7353 10.7197 19.7573 10.8473L20.8073 17.4275C20.8375 17.6143 20.9273 17.7863 21.0634 17.9177C21.1995 18.0491 21.3746 18.1329 21.5623 18.1565C21.75 18.18 21.9403 18.1421 22.1047 18.0484C22.269 17.9547 22.3986 17.8103 22.4739 17.6367L23.9109 14.3131L25.3478 17.6367C25.4231 17.8103 25.5527 17.9547 25.7171 18.0484C25.8814 18.1421 26.0717 18.18 26.2594 18.1565C26.4472 18.1329 26.6222 18.0491 26.7583 17.9177C26.8944 17.7863 26.9842 17.6143 27.0144 17.4275L28.0644 10.8473C28.0876 10.7175 28.0812 10.5843 28.0457 10.4574C28.0102 10.3304 27.9465 10.2132 27.8594 10.1144C27.7722 10.0155 27.6639 9.93762 27.5424 9.8865C27.421 9.83538 27.2895 9.81236 27.1579 9.81914ZM1.6093 20.3C3.3243 23.709 6.39741 26.3199 10.1214 27.4189C8.97341 25.6339 8.13954 23.1 7.64954 20.3H1.6093ZM9.78508 20.3C10.6531 24.801 12.3464 27.8112 13.9564 27.9932C14.0054 28.0002 14.0619 28 14.1109 28C14.1599 28 14.2164 28.0002 14.2654 27.9932C15.8754 27.8112 17.5686 24.801 18.4366 20.3H9.78508ZM20.5722 20.3C20.0822 23.1 19.2483 25.6339 18.1003 27.4189C21.8243 26.3199 24.8974 23.709 26.6124 20.3H20.5722Z" fill="#6B4897"/>
</svg>
