<svg width="40" height="40" viewBox="0 0 40 40" fill="none" xmlns="http://www.w3.org/2000/svg">
<g id="Group 626443">
<circle id="Ellipse 1369" opacity="0.65" cx="20" cy="20" r="20" fill="white"/>
<g id="Group 626442">
<path id="Vector" d="M26.9995 25.7692H13.6164C13.0602 25.7692 12.5502 25.489 12.2525 25.0191C11.9548 24.5493 11.9179 23.9691 12.1547 23.466L13.3847 20.9912V18.0987C13.3847 14.296 16.2791 11.1815 19.9742 11.0074C21.8901 10.9207 23.7036 11.5941 25.0859 12.9127C26.4696 14.2323 27.2312 16.0116 27.2312 17.9228V20.9912L28.4543 23.4526C28.6975 23.9691 28.661 24.5497 28.3633 25.0196C28.0657 25.4895 27.5556 25.7692 26.9995 25.7692ZM17.5802 26.6923C17.8008 27.9998 18.9381 29 20.3079 29C21.6778 29 22.8146 27.9998 23.0357 26.6923H17.5802Z" fill="#6B4897"/>
<circle id="Ellipse 1370" cx="24.5" cy="13.5" r="2.5" fill="#F94144"/>
</g>
</g>
</svg>
