<svg width="28" height="28" viewBox="0 0 28 28" fill="none" xmlns="http://www.w3.org/2000/svg">
<circle cx="14" cy="14" r="14" fill="#6B4897"/>
<path d="M10.7717 8C8.69478 8 7.00021 9.69457 7.00021 11.7715C7.00021 13.1759 8.05884 14.4982 9.34934 15.8543C10.6398 17.2104 12.2283 18.5839 13.4938 19.8494C13.5902 19.9458 13.721 20 13.8574 20C13.9938 20 14.1246 19.9458 14.221 19.8494C15.4866 18.5839 17.075 17.2104 18.3655 15.8543C19.656 14.4982 20.7146 13.1759 20.7146 11.7715C20.7146 9.69457 19.02 8 16.9432 8C15.7512 8 14.7135 8.63994 13.8574 9.72702C13.0014 8.63994 11.9636 8 10.7717 8ZM10.7717 9.02858C11.7758 9.02858 12.6116 9.56289 13.4228 10.846C13.4692 10.9193 13.5334 10.9797 13.6094 11.0215C13.6853 11.0633 13.7707 11.0853 13.8574 11.0853C13.9442 11.0853 14.0295 11.0633 14.1055 11.0215C14.1815 10.9797 14.2456 10.9193 14.292 10.846C15.1033 9.56289 15.9391 9.02858 16.9432 9.02858C18.4642 9.02858 19.686 10.2504 19.686 11.7715C19.686 12.5956 18.8589 13.8448 17.6208 15.1458C16.4918 16.3323 15.0884 17.5718 13.8574 18.772C12.6264 17.5718 11.223 16.3323 10.094 15.1458C8.85589 13.8448 8.02879 12.5956 8.02879 11.7715C8.02879 10.2504 9.2506 9.02858 10.7717 9.02858Z" fill="white"/>
<path d="M10.7715 8C8.69457 8 7 9.69457 7 11.7715C7 13.1759 8.05863 14.4982 9.34913 15.8543C10.6396 17.2104 12.2281 18.5839 13.4936 19.8494C13.59 19.9458 13.7208 20 13.8572 20C13.9936 20 14.1244 19.9458 14.2208 19.8494C15.4863 18.5839 17.0748 17.2104 18.3653 15.8543C19.6558 14.4982 20.7144 13.1759 20.7144 11.7715C20.7144 9.69457 19.0198 8 16.9429 8C15.751 8 14.7133 8.63994 13.8572 9.72702C13.0011 8.63994 11.9634 8 10.7715 8Z" fill="white"/>
</svg>
