<svg width="70" height="75" viewBox="0 0 70 75" fill="none" xmlns="http://www.w3.org/2000/svg">
<path id="Vector" d="M49.7355 0.000295292C50.4168 0.00051974 51.0767 0.239733 51.6019 0.676833C52.1271 1.11393 52.4848 1.72163 52.6134 2.3955L57.499 27.9854C57.5343 28.1691 57.5522 28.3558 57.5524 28.5429V38.3852C57.5524 42.1547 54.4549 45.2748 50.7126 45.2748H45.8271V64.9593C45.8323 65.3813 45.7477 65.7995 45.579 66.1857C44.9481 70.9903 40.987 74.8016 36.0559 74.8016C30.6942 74.8016 26.2848 70.3601 26.2848 64.9593C26.2848 59.5585 30.6942 55.117 36.0559 55.117C37.4474 55.117 38.7616 55.437 39.9644 55.9744V42.8065C39.9127 42.4895 39.9127 42.1662 39.9644 41.8492V28.5429C39.9646 28.3558 39.9825 28.1691 40.0178 27.9854L44.9034 2.3955C45.0321 1.72163 45.3897 1.11393 45.9149 0.676833C46.4401 0.239733 47.1 0.00051974 47.7813 0.000295292H49.7355ZM25.3076 0.000295292C25.6961 -0.00523817 26.0817 0.0670469 26.4422 0.21295C26.8027 0.358853 27.1307 0.575464 27.4074 0.850195C27.684 1.12493 27.9037 1.4523 28.0536 1.81328C28.2035 2.17427 28.2807 2.56167 28.2807 2.95298C28.2807 3.34428 28.2035 3.73168 28.0536 4.09267C27.9037 4.45366 27.684 4.78103 27.4074 5.05576C27.1307 5.33049 26.8027 5.5471 26.4422 5.693C26.0817 5.83891 25.6961 5.91119 25.3076 5.90566H14.5594V9.84257H25.3076C25.6961 9.83704 26.0817 9.90932 26.4422 10.0552C26.8027 10.2011 27.1307 10.4177 27.4074 10.6925C27.684 10.9672 27.9037 11.2946 28.0536 11.6556C28.2035 12.0165 28.2807 12.4039 28.2807 12.7953C28.2807 13.1866 28.2035 13.574 28.0536 13.9349C27.9037 14.2959 27.684 14.6233 27.4074 14.898C27.1307 15.1728 26.8027 15.3894 26.4422 15.5353C26.0817 15.6812 25.6961 15.7535 25.3076 15.7479H14.5594V19.6848H25.3076C25.6961 19.6793 26.0817 19.7516 26.4422 19.8975C26.8027 20.0434 27.1307 20.26 27.4074 20.5347C27.684 20.8095 27.9037 21.1368 28.0536 21.4978C28.2035 21.8588 28.2807 22.2462 28.2807 22.6375C28.2807 23.0288 28.2035 23.4162 28.0536 23.7772C27.9037 24.1382 27.684 24.4656 27.4074 24.7403C27.1307 25.015 26.8027 25.2316 26.4422 25.3775C26.0817 25.5235 25.6961 25.5957 25.3076 25.5902H14.5594V29.5271H25.3076C25.6961 29.5216 26.0817 29.5939 26.4422 29.7398C26.8027 29.8857 27.1307 30.1023 27.4074 30.377C27.684 30.6517 27.9037 30.9791 28.0536 31.3401C28.2035 31.7011 28.2807 32.0885 28.2807 32.4798C28.2807 32.8711 28.2035 33.2585 28.0536 33.6195C27.9037 33.9805 27.684 34.3078 27.4074 34.5826C27.1307 34.8573 26.8027 35.0739 26.4422 35.2198C26.0817 35.3657 25.6961 35.438 25.3076 35.4325H14.5594V39.3694H25.3076C25.6961 39.3639 26.0817 39.4361 26.4422 39.582C26.8027 39.7279 27.1307 39.9446 27.4074 40.2193C27.684 40.494 27.9037 40.8214 28.0536 41.1824C28.2035 41.5434 28.2807 41.9308 28.2807 42.3221C28.2807 42.7134 28.2035 43.1008 28.0536 43.4618C27.9037 43.8228 27.684 44.1501 27.4074 44.4249C27.1307 44.6996 26.8027 44.9162 26.4422 45.0621C26.0817 45.208 25.6961 45.2803 25.3076 45.2748H14.5594V66.9277V67.912C14.5594 71.6815 11.4618 74.8016 7.71957 74.8016C3.97731 74.8016 0.879768 71.6815 0.879768 67.912V6.88989C0.879768 3.12038 3.97731 0.000295292 7.71957 0.000295292H25.3076ZM57.5524 46.7319V53.6984C58.475 53.3634 59.453 53.1486 60.4838 53.1486C65.3059 53.1486 69.2778 57.1495 69.2778 62.0066V65.9435C69.2778 70.8007 65.3059 74.8016 60.4838 74.8016C55.6617 74.8016 51.6898 70.8007 51.6898 65.9435V63.9751V62.0066V49.154C53.9176 48.9571 55.9304 48.0901 57.5524 46.7319ZM60.4838 59.0539C58.8295 59.0539 57.5524 60.3403 57.5524 62.0066V63.9751V65.9435C57.5524 67.6098 58.8295 68.8962 60.4838 68.8962C62.138 68.8962 63.4151 67.6098 63.4151 65.9435V62.0066C63.4151 60.3403 62.138 59.0539 60.4838 59.0539ZM36.0559 61.0224C33.8626 61.0224 32.1475 62.75 32.1475 64.9593C32.1475 67.1686 33.8626 68.8962 36.0559 68.8962C38.2492 68.8962 39.9644 67.1686 39.9644 64.9593C39.9644 62.75 38.2492 61.0224 36.0559 61.0224Z" fill="white"/>
</svg>
